<?xml version="1.0" standalone="no"?>
<!DOCTYPE svg PUBLIC "-//W3C//DTD SVG 20010904//EN" "http://www.w3.org/TR/2001/REC-SVG-20010904/DTD/svg10.dtd">

<svg xmlns="http://www.w3.org/2000/svg" 
    xmlns:xlink="http://www.w3.org/1999/xlink"
    width="136.5pt"
    height="148.5pt"
    viewBox="0 0 136.5 148.5">
<defs/>

<ellipse id="shape0"
  transform="translate(3.74999998645359, 3.24241745844243)"
  rx="63.7499999999949"
  ry="16.4999999999987"
  cx="63.7499999999949"
  cy="16.4999999999987"
  fill="none"
  stroke="#000000"
  stroke-width="4"
  stroke-linecap="square"
  stroke-linejoin="bevel"/>

<path id="shape1"
  transform="translate(3.65626665504448, 21.0384184147856)"
  fill="none"
  stroke="#000000"
  stroke-width="4"
  stroke-linecap="square"
  stroke-linejoin="bevel"
  d="M0 0.102209L0.843737 29.9381C14.2517 41.249 35.7127 43.0276 57.6161 44.2826C70.8358 43.3237 85.6306 43.3575 98.7908 41.297C110.536 39.4627 121.561 35.9689 127.785 28.6378L127.487 0"/>

<path id="shape2"
  transform="translate(3.93751194253457, 52.5468763646572)"
  fill="none"
  stroke="#000000"
  stroke-width="4"
  stroke-linecap="square"
  stroke-linejoin="bevel"
  d="M2.57813 0.468752L2.57813 3C0.792913 3.30238 0.642508 5.94019 0 7.875C10.6211 22.9518 41.8075 22.3339 70.7257 23.447C94.8244 22.3943 117.735 20.4684 127.406 8.8125C127.019 6.3453 126.833 3.7723 124.828 2.15625L124.828 0L124.828 0L124.828 0.046875"/>

<path id="shape3"
  transform="translate(9.00000332197618, 54.6480849127494)"
  fill="none"
  stroke="#000000"
  stroke-width="4"
  stroke-linecap="square"
  stroke-linejoin="bevel"
  d="M0 0.336291C0.339943 5.10762 5.01287 8.69722 13.6023 11.2187C19.7291 13.3775 32.9051 15.2323 62.6138 16.3739C76.1805 15.5203 86.0157 14.5864 93.1656 13.5941C110.936 9.35518 120.415 4.86343 117.702 0"/>

<path id="shape4"
  transform="translate(3.93042304062214, 61.0120440079094)"
  fill="none"
  stroke="#000000"
  stroke-width="4"
  stroke-linecap="square"
  stroke-linejoin="bevel"
  d="M0 0L0.616453 29.738C8.18429 35.8001 16.8972 39.6956 27.6317 41.3233C39.3498 43.8322 52.2052 44.3128 65.4958 44.0174C90.5117 41.8687 118.457 42.0857 127.346 28.1738L127.213 0.928079"/>

<path id="shape5"
  transform="translate(3.98436663869228, 93.2812586032132)"
  fill="none"
  stroke="#000000"
  stroke-width="4"
  stroke-linecap="square"
  stroke-linejoin="bevel"
  d="M2.90626 0.468741C1.35521 2.22447 0.70533 5.04015 0 7.21874C1.90252 10.2157 4.3612 12.6451 7.26853 14.6168C29.3066 22.9694 45.4774 23.0018 68.2031 23.5312C91.8419 20.8365 120.219 21.797 127.359 6.375C126.932 4.30755 126.003 2.19229 124.266 0"/>

<path id="shape6" 
  transform="translate(8.83599144180818, 94.3896995012819)" 
  fill="none" 
  stroke="#000000" 
  stroke-width="4" 
  stroke-linecap="square" 
  stroke-linejoin="bevel" 
  d="M0 0C0.163986 6.36277 6.43602 9.19562 13.9937 11.3331C19.8166 14.0242 33.1184 16.1848 66.914 16.8916C93.01 14.312 104.393 11.8799 109.626 9.52581C118.439 6.24984 117.603 3.01827 118.098 0.331455"/>

<path id="shape7" 
  transform="translate(3.83098776920269, 100.40562700205)" 
  fill="none" 
  stroke="#000000" 
  stroke-width="4" 
  stroke-linecap="square" 
  stroke-linejoin="bevel" 
  d="M0.530344 0.977801L0 30.8752C15.7139 43.9147 38.7462 43.6869 61.9492 45.0615C74.6242 43.5211 85.5162 45.4098 98.956 42.3985C107.594 40.5823 125.082 37.4725 127.513 29.4381L127.395 0"/>

</svg>
