<?xml version="1.0" standalone="no"?>
<!DOCTYPE svg PUBLIC "-//W3C//DTD SVG 20010904//EN" "http://www.w3.org/TR/2001/REC-SVG-20010904/DTD/svg10.dtd">

<svg xmlns="http://www.w3.org/2000/svg" 
    xmlns:xlink="http://www.w3.org/1999/xlink"
    width="192pt"
    height="192pt"
    viewBox="0 0 184.32 184.32">
<defs/>
<ellipse id="shape0"
  transform="matrix(1.28129754834083 -0.0007311535974794 0.000678482459674425 1.18899491867383 10.3896434532092 6.8934722032764)"
  rx="63.7499999999949"
  ry="16.4999999999987"
  cx="63.7499999999949"
  cy="16.4999999999987"
  fill="none"
  stroke="#3d3d3d"
  stroke-width="6"
  stroke-linecap="square"
  stroke-linejoin="bevel"/>
  
<path id="shape1"
  transform="matrix(1.28129754834083 -0.0007311535974794 0.000678482459674425 1.18899491867383 10.2816174399782 28.0528954465454)"
  fill="none"
  stroke="#3d3d3d"
  stroke-width="6"
  stroke-linecap="square"
  stroke-linejoin="bevel"
  d="M0 0.102209L0.843737 29.9381C14.2517 41.249 35.7127 43.0276 57.6161 44.2826C70.8358 43.3237 85.6306 43.3575 98.7908 41.297C110.536 39.4627 121.561 35.9689 127.785 28.6378L127.487 0"/>
  
<path id="shape2"
  transform="matrix(1.28129754834083 -0.0007311535974794 0.000678482459674425 1.18899491867383 10.663354273372 65.516086210687)"
  fill="none"
  stroke="#3d3d3d"
  stroke-width="6"
  stroke-linecap="square"
  stroke-linejoin="bevel"
  d="M2.57813 0.468752L2.57813 3C0.792913 3.30238 0.642508 5.94019 0 7.875C10.6211 22.9518 41.8075 22.3339 70.7257 23.447C94.8244 22.3943 117.735 20.4684 127.406 8.8125C127.019 6.3453 126.833 3.7723 124.828 2.15625L124.828 0L124.828 0L124.828 0.046875"/>
  
<path id="shape3"
  transform="matrix(1.28129754834083 -0.0007311535974794 0.000678482459674425 1.18899491867383 14.6331233116467 68.0121480206546)"
  fill="none"
  stroke="#3d3d3d"
  stroke-width="7.2"
  stroke-linecap="square"
  stroke-linejoin="bevel"
  d="M0 1.05629C0.339943 5.82762 6.97823 8.69722 15.5677 11.2187C21.6945 13.3775 34.8705 15.2323 64.5792 16.3739C78.1459 15.5203 87.9811 14.5864 95.131 13.5941C112.901 9.35518 122.38 4.86343 119.667 0"/>
  
<path id="shape4"
  transform="matrix(1.28129754834083 -0.0007311535974794 0.000678482459674425 1.18899491867383 10.6600147484954 75.581132707312)"
  fill="none"
  stroke="#3d3d3d"
  stroke-width="6"
  stroke-linecap="square"
  stroke-linejoin="bevel"
  d="M0 0L0.616453 29.738C8.18429 35.8001 16.8972 39.6956 27.6317 41.3233C39.3498 43.8322 52.2052 44.3128 65.4958 44.0174C90.5117 41.8687 118.457 42.0857 127.346 28.1738L127.213 0.928079"/>
  
<path id="shape5"
  transform="matrix(1.28129754834083 -0.0007311535974794 0.000678482459674425 1.18899491867383 10.7510266445418 113.949025449668)"
  fill="none"
  stroke="#3d3d3d"
  stroke-width="6"
  stroke-linecap="square"
  stroke-linejoin="bevel"
  d="M2.90626 0.468741C1.35521 2.22447 0.70533 5.04015 0 7.21874C1.90252 10.2157 4.3612 12.6451 7.26853 14.6168C29.3066 22.9694 45.4774 23.0018 68.2031 23.5312C91.8419 20.8365 120.219 21.797 127.359 6.375C126.932 4.30755 126.003 2.19229 124.266 0"/>
  
<path id="shape6"
  transform="matrix(1.28129754834083 -0.0007311535974794 0.000678482459674425 1.18899491867383 15.5698784774259 116.548321548829)"
  fill="none"
  stroke="#3d3d3d"
  stroke-width="8.64"
  stroke-linecap="round"
  stroke-linejoin="bevel"
  d="M0 0C0.163986 6.36277 7.52789 8.11562 15.0856 10.2531C20.9085 12.9442 34.2103 15.1048 68.0059 15.8116C94.1019 13.232 105.485 10.7999 110.718 8.44581C119.531 5.16984 119.35 3.42327 119.845 0.736455"/>
  
<path id="shape7"
  transform="matrix(1.28129754834083 -0.0007311535974794 0.000678482459674425 1.18899491867383 10.5593364340923 122.419975418157)"
  fill="none"
  stroke="#3d3d3d"
  stroke-width="6"
  stroke-linecap="square"
  stroke-linejoin="bevel"
  d="M0.530344 0.977801L0 30.8752C15.7139 43.9147 36.89 45.7119 61.6216 46.6815C75.6069 46.6261 85.5162 45.4098 98.956 42.3985C107.594 40.5823 125.082 37.4725 127.513 29.4381L127.395 0"/>
</svg>
