<?xml version="1.0" standalone="no"?>
<!DOCTYPE svg PUBLIC "-//W3C//DTD SVG 20010904//EN" "http://www.w3.org/TR/2001/REC-SVG-20010904/DTD/svg10.dtd">

<svg xmlns="http://www.w3.org/2000/svg" 
    xmlns:xlink="http://www.w3.org/1999/xlink"
    width="120.96pt"
    height="102.24pt"
    viewBox="0 0 120.96 102.24">
<defs/>
<path id="shape0"
  transform="translate(4.5956, 4.11)"
  fill="#9d9d9d"
  fill-rule="evenodd"
  stroke="#6a6a6a"
  stroke-width="0.1"
  stroke-linecap="square"
  stroke-linejoin="bevel"
  d="M23.9063 0L0 29.0156L8.0156 89.969L8.49 90.9L8.8143 91.644L9.2623 92.348L10.1079 93.157L11.625 94.219L99.7814 94.219L100.938 93.519L101.85 92.79L102.55 92.037L103.071 91.263L103.448 90.473L103.712 89.669L103.899 88.856L104.041 88.038L104.172 87.219L111.984 31.0078L84.8674 0L53.7647 0L23.9063 0M29.2188 43.1406L81.8434 43.125L82.6084 42.4634L83.3084 41.7878L83.9044 41.0905L84.3594 40.3641L84.6344 39.6009L84.6924 38.7934L84.4934 37.934L84.0014 37.0152L83.1784 36.0293L81.9844 34.9687L28.7813 34.9219L27.7276 35.9033L26.9179 36.8492L26.352 37.7597L26.0299 38.6347L25.9517 39.4743L26.1174 40.2785L26.527 41.0472L27.1804 41.7804L28.0776 42.4783L29.2188 43.1406M24.7734 3.0056L5.2031 27.365L105.969 27.1307L84.0704 2.6541L84.0104 2.6544L83.9354 2.6549L83.8314 2.6555L83.6964 2.6563L83.5324 2.6572L83.3384 2.6584L83.1144 2.6597L82.8604 2.6612L82.5764 2.6629L82.2624 2.6648L81.9194 2.6668L81.5454 2.669L81.1424 2.6714L80.7084 2.674L80.2454 2.6767L79.7524 2.6797L79.2294 2.6828L78.6774 2.686L78.0944 2.6895L77.4814 2.6931L76.8394 2.6969L76.1674 2.7009L75.4654 2.7051L74.7324 2.7094L73.9714 2.7139L73.1794 2.7186L72.3574 2.7235L71.5054 2.7286L70.6244 2.7338L69.7134 2.7392L68.7718 2.7448L67.8007 2.7505L66.7997 2.7565L65.7689 2.7626L64.7081 2.7689L63.6175 2.7753L62.497 2.782L61.3466 2.7888L60.1663 2.7958L58.9562 2.803L57.7162 2.8103L56.4463 2.8178L55.1465 2.8255L53.8168 2.8334L52.4573 2.8415L51.0679 2.8497L49.6486 2.8581L48.1994 2.8667L46.7203 2.8755L45.2114 2.8844L43.6726 2.8936L42.1039 2.9029L40.5053 2.9124L38.8768 2.922L37.2185 2.9318L35.5303 2.9418L33.8122 2.952L32.0642 2.9624L30.2863 2.9729L28.4786 2.9837L26.641 2.9945L24.7734 3.0056"/>
  
<path id="shape4"
  transform="matrix(1 0 0 0.971590816979622 18.6002889914303 22.1225453534331)"
  fill="#9d9d9d"
  fill-rule="evenodd"
  stroke="#6a6a6a"
  stroke-width="0.1"
  stroke-linecap="square"
  stroke-linejoin="bevel"
  d="M1.69846 0L80.2922 0.09375C85.4994 3.7179 82.8928 5.99907 80.2922 8.28125L1.71408 7.42187C-0.566141 5.66263 -0.571348 3.18867 1.69846 0Z"/>
  
<path id="shape5"
  transform="matrix(0.844852935155332 0 0 0.756019127776779 24.3945662843462 15.1316023229609)"
  fill="#9d9d9d"
  fill-rule="evenodd"
  stroke="#6a6a6a"
  stroke-width="0.1"
  stroke-linecap="square"
  stroke-linejoin="bevel"
  d="M1.69846 0L80.2922 0.09375C85.4994 3.7179 82.8928 5.99907 80.2922 8.28125L1.71408 7.42187C-0.566141 5.66263 -0.571348 3.18867 1.69846 0Z"/>
  
<path id="shape6"
  transform="matrix(0.706153831956519 0 0 0.692525265032613 30.3868757880719 8.447578939368)"
  fill="#9d9d9d"
  fill-rule="evenodd"
  stroke="#6a6a6a"
  stroke-width="0.1"
  stroke-linecap="square"
  stroke-linejoin="bevel"
  d="M1.69846 0L80.2922 0.09375C85.4994 3.7179 82.8928 5.99907 80.2922 8.28125L1.71408 7.42187C-0.566141 5.66263 -0.571348 3.18867 1.69846 0Z"/>
</svg>
