<?xml version="1.0" standalone="no"?>
<!DOCTYPE svg PUBLIC "-//W3C//DTD SVG 20010904//EN" "http://www.w3.org/TR/2001/REC-SVG-20010904/DTD/svg10.dtd">

<svg xmlns="http://www.w3.org/2000/svg" 
    xmlns:xlink="http://www.w3.org/1999/xlink"
    width="174.24pt"
    height="168.48pt"
    viewBox="0 0 174.24 168.48">
<defs/>
<path id="shape0"
  fill="#752a97"
  fill-rule="evenodd"
  stroke="#000000"
  stroke-width="5"
  stroke-linecap="square"
  stroke-linejoin="bevel"
  d="M54.4219 36.51L30.5156 65.5256L38.5312 126.479L39.0056 127.41L39.3299 128.154L39.7779 128.858L40.6235 129.667L42.1406 130.729L130.297 130.729L131.454 130.029L132.366 129.3L133.066 128.547L133.587 127.773L133.964 126.983L134.228 126.179L134.415 125.366L134.557 124.548L134.688 123.729L142.5 67.5178L115.383 36.51L84.2803 36.51L54.4219 36.51M59.7344 79.6506L112.359 79.635L113.124 78.9734L113.824 78.2978L114.42 77.6005L114.875 76.8741L115.15 76.1109L115.208 75.3034L115.009 74.444L114.517 73.5252L113.694 72.5393L112.5 71.4787L59.2969 71.4319L58.2432 72.4133L57.4335 73.3592L56.8676 74.2697L56.5455 75.1447L56.4673 75.9843L56.633 76.7885L57.0426 77.5572L57.696 78.2904L58.5932 78.9883L59.7344 79.6506M55.289 39.5156L35.7187 63.875L136.485 63.6407L114.586 39.1641L114.526 39.1644L114.451 39.1649L114.347 39.1655L114.212 39.1663L114.048 39.1672L113.854 39.1684L113.63 39.1697L113.376 39.1712L113.092 39.1729L112.778 39.1748L112.435 39.1768L112.061 39.179L111.658 39.1814L111.224 39.184L110.761 39.1867L110.268 39.1897L109.745 39.1928L109.193 39.196L108.61 39.1995L107.997 39.2031L107.355 39.2069L106.683 39.2109L105.981 39.2151L105.248 39.2194L104.487 39.2239L103.695 39.2286L102.873 39.2335L102.021 39.2386L101.14 39.2438L100.229 39.2492L99.2874 39.2548L98.3163 39.2605L97.3153 39.2665L96.2845 39.2726L95.2237 39.2789L94.1331 39.2853L93.0126 39.292L91.8622 39.2988L90.6819 39.3058L89.4718 39.313L88.2318 39.3203L86.9619 39.3278L85.6621 39.3355L84.3324 39.3434L82.9729 39.3515L81.5835 39.3597L80.1642 39.3681L78.715 39.3767L77.2359 39.3855L75.727 39.3944L74.1882 39.4036L72.6195 39.4129L71.0209 39.4224L69.3924 39.432L67.7341 39.4418L66.0459 39.4518L64.3278 39.462L62.5798 39.4724L60.8019 39.4829L58.9942 39.4937L57.1566 39.5045L55.289 39.5156"/>
  
<path id="shape4"
  transform="matrix(1 0 0 0.971590816979622 44.5202886162035 54.5225453534331)"
  fill="#752a97"
  fill-rule="evenodd"
  stroke="#000000"
  stroke-width="5"
  stroke-linecap="square"
  stroke-linejoin="bevel"
  d="M1.69846 0L80.2922 0.09375C85.4994 3.7179 82.8928 5.99907 80.2922 8.28125L1.71408 7.42187C-0.566141 5.66263 -0.571348 3.18867 1.69846 0Z"/>
  
<path id="shape5"
  transform="matrix(0.844852935155332 0 0 0.756019127776779 50.3145659673348 47.5316023229609)"
  fill="#752a97"
  fill-rule="evenodd"
  stroke="#000000"
  stroke-width="5"
  stroke-linecap="square"
  stroke-linejoin="bevel"
  d="M1.69846 0L80.2922 0.09375C85.4994 3.7179 82.8928 5.99907 80.2922 8.28125L1.71408 7.42187C-0.566141 5.66263 -0.571348 3.18867 1.69846 0Z"/>
  
<path id="shape6"
  transform="matrix(0.706153831956519 0 0 0.692525265032613 56.3068755231041 40.847578939368)"
  fill="#752a97"
  fill-rule="evenodd"
  stroke="#000000"
  stroke-width="5"
  stroke-linecap="square"
  stroke-linejoin="bevel"
  d="M1.69846 0L80.2922 0.09375C85.4994 3.7179 82.8928 5.99907 80.2922 8.28125L1.71408 7.42187C-0.566141 5.66263 -0.571348 3.18867 1.69846 0Z"/>
  
<ellipse id="shape01"
  transform="translate(2.43749983914782, 2.62499982677456)"
  rx="83.3437445000923"
  ry="81.7499995561757"
  cx="83.3437445000923"
  cy="81.7499995561757"
  fill="none"
  stroke="transparent"
  stroke-width="1"
  stroke-linecap="square"
  stroke-linejoin="bevel"/>
</svg>
