<?xml version="1.0" standalone="no"?>
<!DOCTYPE svg PUBLIC "-//W3C//DTD SVG 20010904//EN" "http://www.w3.org/TR/2001/REC-SVG-20010904/DTD/svg10.dtd">
<!-- Created using Krita: https://krita.org -->
<svg xmlns="http://www.w3.org/2000/svg" 
    xmlns:xlink="http://www.w3.org/1999/xlink"
    xmlns:krita="http://krita.org/namespaces/svg/krita"
    xmlns:sodipodi="http://sodipodi.sourceforge.net/DTD/sodipodi-0.dtd"
    width="174pt"
    height="168pt"
    viewBox="0 0 174 168">
<defs/>
<ellipse id="shape0" transform="translate(2.43749983914782, 2.62499982677456)" rx="83.3437445000923" ry="81.7499995561757" cx="83.3437445000923" cy="81.7499995561757" fill="#752a97" fill-rule="evenodd" stroke="none" stroke-width="1.01" stroke-linecap="square" stroke-linejoin="bevel"/><path id="shape1" transform="translate(30.5156238956866, 36.3749975995866)" fill="#ffffff" fill-rule="evenodd" stroke="#000000" stroke-width="1.01" stroke-linecap="square" stroke-linejoin="bevel" d="M23.9063 2.16812e-06L0 29.0156L8.01562 89.9687C9.08358 91.7566 8.38464 92.1589 11.625 94.2188L99.7813 94.2188C103.656 92.1658 103.762 89.6747 104.172 87.2188L111.984 31.0078L84.8672 0C84.8672 0 64.5469 7.22706e-07 23.9063 2.16812e-06Z" sodipodi:nodetypes="ccccccccc"/><path id="shape2" transform="translate(35.7187487073925, 39.1640599155323)" fill="#752a97" fill-rule="evenodd" stroke="#000000" stroke-width="1.01" stroke-linecap="square" stroke-linejoin="bevel" d="M19.5703 0.351562L0 24.7109L100.766 24.4766L78.8672 0C78.8672 0 59.1016 0.117187 19.5703 0.351562Z" sodipodi:nodetypes="ccccc"/><path id="shape3" transform="translate(56.4634102388085, 71.2968724198815)" fill="#752a97" fill-rule="evenodd" stroke="#000000" stroke-width="1.01" stroke-linecap="square" stroke-linejoin="bevel" d="M3.27096 8.21875L55.896 8.20312C58.5125 6.01283 60.6743 3.71467 56.0366 0.046875L2.83346 0C-1.08509 3.33035 -0.939255 6.06993 3.27096 8.21875Z" sodipodi:nodetypes="ccccc"/><path id="shape4" transform="matrix(1 0 0 0.971590816979622 44.5202891785862 54.5225453534331)" fill="#ffffff" fill-rule="evenodd" stroke="#000000" stroke-width="1.01" stroke-linecap="square" stroke-linejoin="bevel" d="M1.69846 0L80.2922 0.09375C85.4994 3.7179 82.8928 5.99907 80.2922 8.28125L1.71408 7.42187C-0.566142 5.66263 -0.571349 3.18867 1.69846 0Z" sodipodi:nodetypes="ccccc"/><path id="shape5" transform="matrix(0.844852935155332 0 0 0.756019127776779 50.3145664424655 47.5316023229609)" fill="#ffffff" fill-rule="evenodd" stroke="#000000" stroke-width="1.01" stroke-linecap="square" stroke-linejoin="bevel" d="M1.69846 0L80.2922 0.09375C85.4994 3.7179 82.8928 5.99907 80.2922 8.28125L1.71408 7.42187C-0.566142 5.66263 -0.571349 3.18867 1.69846 0Z" sodipodi:nodetypes="ccccc"/><path id="shape6" transform="matrix(0.706153831956519 0 0 0.692525265032613 56.2393759230526 40.1275789560344)" fill="#ffffff" fill-rule="evenodd" stroke="#000000" stroke-width="1.01" stroke-linecap="square" stroke-linejoin="bevel" d="M1.69846 0L80.2922 0.09375C85.4994 3.7179 82.8928 5.99907 80.2922 8.28125L1.71408 7.42187C-0.566142 5.66263 -0.571349 3.18867 1.69846 0Z" sodipodi:nodetypes="ccccc"/>
</svg>
