<?xml version="1.0" standalone="no"?>
<!DOCTYPE svg PUBLIC "-//W3C//DTD SVG 20010904//EN" "http://www.w3.org/TR/2001/REC-SVG-20010904/DTD/svg10.dtd">

<svg xmlns="http://www.w3.org/2000/svg" 
    xmlns:xlink="http://www.w3.org/1999/xlink"
    width="230.4pt"
    height="230.4pt"
    viewBox="0 0 230.4 230.4">
<defs/>
<path id="shape0"
  transform="translate(10.842499506776, 13.8862492754736)"
  fill="#ffffff"
  fill-rule="evenodd"
  stroke-opacity="0"
  stroke="#6a6a6a"
  stroke-width="0"
  stroke-linecap="square"
  stroke-linejoin="bevel"
  d="M203.198 102.226C203.198 39.8779 164.575 3.77476e-15 102.443 0C40.3105 -3.77476e-15 7.54952e-15 39.2704 0 101.618C0.0035756 151.884 24.8393 189.423 69.1566 208.831C80.0285 212.342 91.6223 214.239 103.658 214.239C115.313 214.239 126.555 212.46 137.128 209.158C177.487 192.381 198.558 151.552 203.198 102.226Z"/>
  
<path id="shape01"
  transform="translate(2, 2.43749998353438)"
  fill="#6a6a6a"
  fill-rule="evenodd"
  stroke="#6a6a6a"
  stroke-width="1"
  stroke-linecap="square"
  stroke-linejoin="bevel"
  d="M53.25 46.875C49.0225 49.4088 49.7192 57.8264 49.6875 63.375C50.1488 67.875 50.7177 72.375 52.5937 76.875C46.9012 82.2538 44.06 89.3843 41.8481 97.125C41.4615 100.422 40.9702 103.719 40.9219 107.016C40.9729 112.773 40.9042 118.263 42.4687 125.016C45.3554 137.631 51.1133 145.492 58.4369 150.762C67.5395 158.256 79.4889 160.992 91.875 162.875C87.7822 166.713 86.0845 172.292 84.7031 178.102L71.3906 180.328C65.1292 179.974 59.2391 178.195 54.4687 172.125C49.6755 164.701 44.7952 157.345 31.4531 156.516L29.625 158.625C31.1795 162.42 33.6658 163.362 36.0506 164.312C37.7904 165.886 39.4633 167.45 41.0432 169.039C44.4203 173.301 47.2582 178.518 49.2656 185.203C54.2734 191.333 62.2026 194.071 72.375 194.203L84.5156 193.078L84.4375 216.094L79.5 220.359C56.0623 213.044 37.1336 200.042 23.6125 181.586C10.2131 164.94 1.66098 143.447 0 115.062C1.50276 74.9132 15.2254 46.9202 38.3814 28.3115C56.4525 10.1799 80.406 1.90821 112.375 0C136.756 0.65357 165.961 4.67601 192.389 33.3632C207.168 47.4269 223.655 70.44 224.062 112.219C222.086 178.388 186.915 202.995 146.25 220.5L140.406 216.094L140.562 178.937C138.936 171.125 136.625 165.318 133.25 162.625C140.816 160.6 148.147 160.577 155.689 156.983C160.877 155.067 166.244 151.8 171.852 145.369C177.932 138.361 182.561 127.099 184.5 107.937C183.218 92.708 178.946 82.5887 172.5 76.1875C173.758 72.5429 174.484 67.8319 175.125 62.9531C173.697 55.9506 173.705 45.5353 168.891 46.4531C157.887 48.8776 148.871 53.1791 140.859 58.4297C131.798 56.8387 123.215 54.6493 112.75 54.8125C102.045 54.3908 93.7859 56.9801 84.5312 58.3437C77.6438 54.0528 71.0125 50.6996 64.6376 48.2841C61.2254 47.1996 57.4671 46.5421 53.25 46.875Z"/>
</svg>
