<?xml version="1.0" standalone="no"?>
<!DOCTYPE svg PUBLIC "-//W3C//DTD SVG 20010904//EN" "http://www.w3.org/TR/2001/REC-SVG-20010904/DTD/svg10.dtd">

<svg xmlns="http://www.w3.org/2000/svg" 
    xmlns:xlink="http://www.w3.org/1999/xlink"
    width="232.2pt"
    height="285.6pt"
    viewBox="0 0 232.2 285.6">
<defs/>
<path id="shape0"
  transform="translate(19.049999188006, 10.1249996719536)"
  fill="none"
  stroke="#000000"
  stroke-width="5.99999999999952"
  stroke-linecap="square"
  stroke-linejoin="bevel"
  d="M130.65 0C136.763 0.392058 143.079 -0.0713747 147.75 6.375L188.212 46.6875C192.996 51.3288 194.354 56.412 194.512 61.65L194.55 250.875C194.355 257.775 190.587 260.704 185.006 261.619L10.05 261.45C1.78024 261.362 1.28058 255.994 0.524998 250.8L0 9.225C1.28619 3.81993 4.48954 0.605902 9.975 6.07514e-13C9.975 6.07514e-13 50.2 4.05009e-13 130.65 0Z"/>
  
<path id="shape01"
  transform="translate(159.974997153693, 12.0374996443475)"
  fill="none"
  stroke="#000000"
  stroke-width="5.99999999999952"
  stroke-linecap="round"
  stroke-linejoin="bevel"
  d="M0.20625 0L0 42.0375C0.940384 46.3862 1.9942 50.6827 8.36249 52.5375L50.775 51.8625"/>
  
<path id="shape02"
  transform="translate(147.018736360433, 233.324981791696)"
  fill="none"
  stroke="#000000"
  stroke-width="5.99999999999952"
  stroke-linecap="round"
  stroke-linejoin="bevel"
  d="M39.9375 0.675L0 0"/>
  
<path id="shape1"
  transform="translate(45.5999938694853, 200.081234253067)"
  fill="none"
  stroke="#000000"
  stroke-width="5.99999999999952"
  stroke-linecap="round"
  stroke-linejoin="bevel"
  d="M0 0L141.75 0.09375"/>
  
<path id="shape2"
  transform="translate(45.1874963553661, 167.39998667279)"
  fill="none"
  stroke="#000000"
  stroke-width="5.99999999999952"
  stroke-linecap="round"
  stroke-linejoin="bevel"
  d="M0 0.262505L82.5937 0"/>
  
<path id="shape3"
  transform="translate(146.62498638959, 167.099986695004)"
  fill="none"
  stroke="#000000"
  stroke-width="5.99999999999952"
  stroke-linecap="round"
  stroke-linejoin="bevel"
  d="M0 0L40.875 0.075"/>
  
<path id="shape4"
  transform="translate(45.2249988101646, 134.174997881244)"
  fill="none"
  stroke="#000000"
  stroke-width="5.99999999999952"
  stroke-linecap="round"
  stroke-linejoin="bevel"
  d="M0 0L142.425 0.224996"/>
  
<path id="shape5"
  transform="translate(45.2999963503909, 101.099994970172)"
  fill="none"
  stroke="#000000"
  stroke-width="5.99999999999952"
  stroke-linecap="round"
  stroke-linejoin="bevel"
  d="M0 0.3L41.1 0"/>
  
<path id="shape6"
  transform="translate(105.337493694469, 101.306244961049)"
  fill="none"
  stroke="#000000"
  stroke-width="5.99999999999952"
  stroke-linecap="round"
  stroke-linejoin="bevel"
  d="M0 0L82.2375 0.243747"/>
  
<path id="shape7"
  transform="translate(45.2624963520511, 64.0687466083514)"
  fill="none"
  stroke="#000000"
  stroke-width="5.99999999999952"
  stroke-linecap="round"
  stroke-linejoin="bevel"
  d="M0 0L64.4625 0.05625"/>
</svg>
