<?xml version="1.0" standalone="no"?>
<!DOCTYPE svg PUBLIC "-//W3C//DTD SVG 20010904//EN" "http://www.w3.org/TR/2001/REC-SVG-20010904/DTD/svg10.dtd">

<svg xmlns="http://www.w3.org/2000/svg" 
    xmlns:xlink="http://www.w3.org/1999/xlink"
    width="317pt"
    height="170pt"
    viewBox="0 0 317 170">
<defs/>

<path id="shape5"
  transform="matrix(0.80281683546618 0 0 0.80281683546618 199.994097020607 44.8686489143005)"
  fill="#333333"
  stroke="#000000"
  stroke-width="0.2424"
  stroke-linecap="square"
  stroke-linejoin="bevel"
  d="M0 3.1338L0.240013 30.6138C1.22987 42.0437 6.70646 49.7123 18.193 50.6465L20.0703 50.6783C22.7576 50.1634 25.437 49.2584 27.7254 47.9192C27.8118 49.1718 28.7762 49.9622 29.389 50.082C30.3463 50.1056 32.8269 50.0949 36.8309 50.0499C37.0362 50.1215 39.5689 49.7746 40.05 48.4338L40.2 1.57381C39.5056 0.540486 38.612 0.043531 37.55 0L32.5437 0.0636396C28.5568 -0.0835349 28.1684 1.36861 27.6859 2.77893L27.6647 31.1834C25.9485 33.721 24.1667 36.3315 20.85 37.3938L19.62 37.3038C14.381 36.9986 13.4404 33.7552 12.57 30.4638L12.69 1.2438C12.0389 0.65457 11.3864 0.0795415 10.68 0.0437988L5.13 0.103799C2.21955 -0.255939 0.509552 0.754062 0 3.1338Z"/>

<path id="shape6"
  transform="matrix(0.80281683546618 0 0 0.80281683546618 239.34469188722 44.3137392586196)"
  fill="#333333"
  stroke="#000000"
  stroke-width="0.2424"
  stroke-linecap="square"
  stroke-linejoin="bevel"
  d="M0.00435209 3.37501L0.0643436 45.495C-0.262531 48.7059 0.521741 50.844 5.56565 50.6271L10.5295 50.7119C11.2605 50.3584 11.9885 50.0014 12.3327 49.2058L12.3221 20.6952C14.9652 17.4659 17.8729 14.5011 22.4514 13.207L24.2333 13.2706C27.9202 13.4611 26.982 18.4007 27.2344 21.9326C28.1959 29.2993 26.681 37.879 27.4243 45.3525C27.2385 47.9927 27.7233 50.3534 33.2171 50.6271L37.9694 50.67C38.5748 50.2913 39.3035 50.0113 39.6494 49.425L39.4543 15.885C39.1638 11.3532 38.2412 6.75536 34.6668 3.64291C32.9075 1.86389 30.3888 0.553639 26.6443 0L22.3393 0.015C18.3876 1.28496 14.6577 2.83502 11.4629 5.06111L11.3356 2.21854C10.9768 1.253 10.3098 0.955228 9.61737 0.712406L4.90803 0.66998C1.70442 0.625624 0.0698595 1.5273 0.00435209 3.37501Z"/>

<path id="shape01"
  transform="matrix(0.80281683546618 0 0 0.80281683546618 276.255270052921 29.1525421066672)"
  fill="#333333"
  fill-rule="evenodd"
  stroke="#000000"
  stroke-width="0.24"
  stroke-linecap="square"
  stroke-linejoin="bevel"
  d="M40.548 69.435L40.921 69.216L41.246 69L41.531 68.7784L41.785 68.5428L42.02 68.2845L42.243 67.995L42.358 1.665L42.223 1.47779L42.071 1.30325L41.903 1.14103L41.719 0.99081L41.52 0.85223L41.306 0.72497L41.077 0.60869L40.835 0.50303L40.579 0.40768L40.309 0.32228L40.027 0.24649L39.733 0.17999L39.427 0.12243L39.11 0.07347L38.782 0.03277L38.443 0L33.478 0.105L33.077 0.13808L32.702 0.19558L32.352 0.27651L32.026 0.37991L31.723 0.50479L31.442 0.65018L31.182 0.81511L30.941 0.99859L30.72 1.19965L30.516 1.41731L30.329 1.6506L30.158 1.89855L30.001 2.16016L29.858 2.43448L29.657 21.3779L29.394 21.2252L29.133 21.0777L28.873 20.9352L28.615 20.7978L28.358 20.6654L28.103 20.5379L27.849 20.4154L27.596 20.2978L27.345 20.185L27.096 20.0771L26.848 19.974L26.601 19.8757L26.356 19.7822L26.112 19.6933L25.869 19.6091L25.628 19.5296L25.388 19.4547L25.149 19.3844L24.912 19.3187L24.676 19.2574L24.442 19.2007L24.209 19.1484L23.977 19.1005L23.746 19.0571L23.517 19.0179L23.289 18.9832L23.062 18.9527L22.836 18.9265L22.612 18.9045L22.389 18.8867L22.167 18.8731L21.947 18.8636L21.727 18.8583L21.509 18.857L21.292 18.8597L21.076 18.8665L20.862 18.8772L20.648 18.8919L20.101 18.8953L19.56 18.9109L19.024 18.9388L18.494 18.9788L17.97 19.0309L17.452 19.0951L16.939 19.1714L16.433 19.2596L15.932 19.3597L15.438 19.4718L14.95 19.5957L14.468 19.7314L13.992 19.8789L13.523 20.0382L13.061 20.2091L12.605 20.3916L12.155 20.5858L11.713 20.7915L11.277 21.0087L10.848 21.2374L10.427 21.4775L10.012 21.729L9.604 21.9918L9.204 22.2659L8.811 22.5513L8.425 22.8479L8.046 23.1556L7.676 23.4745L7.312 23.8044L6.957 24.1454L6.609 24.4974L6.269 24.8604L5.937 25.2342L5.613 25.6189L5.296 26.0144L4.988 26.4207L4.689 26.8378L4.397 27.2655L4.114 27.7039L3.839 28.1529L3.573 28.6125L3.315 29.0825L3.066 29.5631L2.826 30.0541L2.595 30.5554L2.372 31.0671L2.158 31.5892L1.954 32.1214L1.758 32.6639L1.572 33.2166L1.395 33.7794L1.227 34.3523L1.069 34.9353L0.92 35.5282L0.781 36.1311L0.652 36.7439L0.532 37.3666L0.422 37.9991L0.322 38.6414L0.232 39.2935L0.152 39.9552L0.082 40.6267L0.022 41.3077L0 46.717L0.112 47.2446L0.223 47.7724L0.335 48.3001L0.446 48.8276L0.559 49.3545L0.672 49.8805L0.787 50.4056L0.903 50.9292L1.021 51.4514L1.141 51.9716L1.264 52.4898L1.389 53.0057L1.517 53.5189L1.649 54.0293L1.785 54.5366L1.925 55.0405L2.068 55.5408L2.217 56.0372L2.37 56.5294L2.529 57.0173L2.693 57.5005L2.863 57.9789L3.039 58.452L3.222 58.9198L3.411 59.3819L3.607 59.838L3.811 60.288L4.022 60.7315L4.241 61.1683L4.468 61.5982L4.704 62.0209L4.949 62.4361L5.203 62.8436L5.467 63.2431L5.74 63.6344L6.023 64.0172L6.317 64.3913L6.621 64.7564L6.936 65.1122L7.263 65.4585L7.601 65.7951L7.951 66.1216L8.313 66.4378L8.687 66.7435L9.075 67.0385L9.476 67.3223L9.889 67.5949L10.317 67.8559L10.759 68.1052L11.215 68.3423L11.685 68.5671L12.171 68.7794L12.672 68.9788L13.188 69.1651L13.72 69.3381L14.268 69.4974L14.833 69.643L15.414 69.7744L16.013 69.8914L16.629 69.9938L17.262 70.0813L17.914 70.1537L18.583 70.2107L22.465 70.2531L22.74 70.1978L23.014 70.1406L23.287 70.0814L23.559 70.02L23.83 69.9566L24.099 69.8909L24.368 69.8229L24.635 69.7526L24.901 69.6799L25.165 69.6047L25.429 69.527L25.691 69.4467L25.951 69.3638L26.21 69.2782L26.468 69.1897L26.724 69.0985L26.978 69.0043L27.231 68.9072L27.483 68.8071L27.733 68.7039L27.981 68.5975L28.227 68.4879L28.472 68.3751L28.715 68.2589L28.956 68.1393L29.196 68.0163L29.5929 67.4317C29.7729 69.2149 32.3737 69.6308 32.7462 69.4552C33.7951 69.2826 34.8441 69.5199 35.893 69.5L35.892 69.4954L35.917 69.4908L35.971 69.4864L36.051 69.4822L36.159 69.4781L36.295 69.4741L36.458 69.4703L36.648 69.4666L36.865 69.463L37.11 69.4596L37.383 69.4563L37.683 69.4531L38.01 69.4501L38.364 69.4473L38.746 69.4445L39.156 69.4419L39.592 69.4395L40.056 69.4372L40.548 69.435M29.763 51.21L29.678 35.6756L29.505 35.4747L29.328 35.2782L29.145 35.0861L28.958 34.8985L28.765 34.7155L28.567 34.5373L28.364 34.3639L28.155 34.1955L27.94 34.0321L27.719 33.8739L27.493 33.721L27.261 33.5735L27.022 33.4315L26.777 33.2951L26.526 33.1645L26.268 33.0396L26.003 32.9207L25.732 32.8079L25.454 32.7012L25.168 32.6008L24.876 32.5068L24.576 32.4192L24.269 32.3383L23.954 32.264L23.632 32.1966L21.023 32.2815L20.686 32.3567L20.357 32.4404L20.038 32.5326L19.728 32.6329L19.426 32.7414L19.132 32.8579L18.847 32.9823L18.571 33.1145L18.302 33.2544L18.041 33.4017L17.789 33.5565L17.544 33.7186L17.306 33.8879L17.077 34.0643L16.854 34.2475L16.639 34.4376L16.431 34.6344L16.23 34.8378L16.035 35.0477L15.848 35.2639L15.667 35.4863L15.492 35.7148L15.324 35.9493L15.162 36.1897L15.007 36.4359L14.857 36.6876L14.713 36.9449L14.575 37.2076L14.442 37.4755L14.315 37.7486L14.193 38.0267L14.077 38.3098L13.965 38.5976L13.859 38.8901L13.757 39.1872L13.66 39.4887L13.568 39.7945L13.48 40.1045L13.396 40.4186L13.317 40.7367L13.242 41.0586L13.17 41.3842L13.103 41.7134L13.039 42.0462L12.979 42.3822L12.922 42.7216L12.868 43.064L12.818 43.4095L12.771 43.7578L12.728 47.3853L12.851 47.6981L12.971 48.0135L13.088 48.3309L13.204 48.6498L13.318 48.9697L13.432 49.2902L13.545 49.6107L13.66 49.9308L13.775 50.2499L13.892 50.5676L14.011 50.8834L14.133 51.1968L14.258 51.5074L14.387 51.8145L14.521 52.1177L14.66 52.4166L14.805 52.7107L14.955 52.9994L15.113 53.2823L15.277 53.5588L15.45 53.8286L15.631 54.091L15.822 54.3457L16.022 54.592L16.232 54.8296L16.453 55.0579L16.685 55.2765L16.929 55.4848L17.186 55.6824L17.455 55.8688L17.739 56.0435L18.036 56.2059L18.348 56.3557L18.676 56.4923L19.02 56.6152L19.38 56.7239L19.757 56.818L20.151 56.897L20.564 56.9603L20.996 57.0075L22.921 57.0691L23.205 57.0146L23.485 56.9487L23.763 56.8712L24.037 56.7824L24.309 56.682L24.578 56.5702L24.844 56.447L25.107 56.3122L25.367 56.166L25.624 56.0084L25.879 55.8392L26.13 55.6586L26.379 55.4666L26.625 55.2631L26.868 55.0481L27.108 54.8216L27.345 54.5837L27.579 54.3343L27.811 54.0735L28.039 53.8012L28.265 53.5174L28.487 53.2222L28.707 52.9155L28.924 52.5973L29.138 52.2677L29.349 51.9266L29.558 51.574L29.763 51.21"/>

<path id="shape3"
  transform="translate(112.180013141069, 25.4714806517085)"
  fill="#333333"
  stroke="#000000"
  stroke-width="0.2424"
  stroke-linecap="square"
  stroke-linejoin="bevel"
  d="M0 4.02853L0.058145 59.9379C0.0725003 64.0679 3.29058 65.3159 6.08999 65.2435L10.605 65.3035C11.3946 64.8412 12.2205 64.4394 12.78 63.5935L12.7649 39.6051L32.9068 39.5732C33.75 38.6776 35.0507 38.1803 34.41 34.3285L34.395 31.2985C34.2779 29.2277 34.1189 27.1854 32.28 26.2885L12.8709 26.2619L12.7755 13.4386L34.11 13.441C36.0609 12.7233 35.4554 10.336 35.5903 8.43226L35.58 4.56853C35.1019 2.72561 35.1694 0.170154 33.4106 0L6.30543 0.0318205C3.43774 0.222018 1.33593 1.55425 0 4.02853Z" />

<path id="shape4"
  transform="translate(149.411031890057, 39.8935507040218)"
  fill="#333333"
  stroke="#000000"
  stroke-width="0.2424"
  stroke-linecap="square"
  stroke-linejoin="bevel"
  d="M18.0799 51.174L17.7672 51.125L17.4477 51.074L17.125 51.022L16.8028 50.97L16.4846 50.918L16.1742 50.868L15.8752 50.819L15.5911 50.772L15.3256 50.728L15.0824 50.688L14.8651 50.651L14.6773 50.619L14.5226 50.592L14.4047 50.571L14.3272 50.556L13.8992 50.453L13.4767 50.339L13.0598 50.214L12.6484 50.079L12.2427 49.932L11.8427 49.775L11.4485 49.608L11.06 49.431L10.6773 49.243L10.3006 49.045L9.9297 48.838L9.5649 48.62L9.206 48.394L8.8533 48.157L8.5066 47.912L8.1662 47.657L7.8319 47.393L7.5039 47.121L7.1823 46.84L6.8669 46.55L6.558 46.252L6.2556 45.945L5.9597 45.631L5.6703 45.308L5.3875 44.977L5.1114 44.639L4.842 44.293L4.5793 43.94L4.3234 43.579L4.0744 43.212L3.8322 42.837L3.597 42.455L3.3688 42.067L3.1476 41.672L2.9335 41.27L2.7265 40.863L2.5267 40.449L2.3342 40.029L2.1489 39.603L1.9709 39.171L1.8003 38.734L1.6372 38.291L1.4815 37.843L1.3333 37.39L1.1927 36.932L1.0596 36.469L0.9343 36.001L0.8166 35.529L0.7068 35.052L0.6047 34.57L0.5105 34.085L0.4241 33.595L0.3458 33.102L0.2754 32.605L0.213 32.104L0.1588 31.6L0.1127 31.092L0.0748 30.581L0.0451 30.067L0.0237 29.55L0.0107 29.03L0.006 28.508L0.0097 27.983L0.0035 27.485L0.0002 26.984L0 26.478L0.003 25.97L0.0095 25.459L0.0197 24.946L0.0337 24.43L0.0518 23.913L0.0741 23.394L0.1008 22.873L0.1321 22.352L0.1683 21.83L0.2094 21.307L0.2556 20.785L0.3073 20.262L0.3644 19.74L0.4273 19.219L0.4962 18.699L0.5711 18.181L0.6524 17.664L0.7402 17.149L0.8346 16.636L0.9359 16.126L1.0443 15.618L1.1599 15.114L1.283 14.614L1.4137 14.117L1.5522 13.624L1.6987 13.135L1.8534 12.651L2.0165 12.172L2.1882 11.699L2.3686 11.23L2.558 10.768L2.7565 10.312L2.9643 9.862L3.1817 9.419L3.4087 8.983L3.6457 8.554L3.8927 8.133L4.15 7.719L4.4178 7.314L4.6962 6.918L4.9855 6.53L5.2858 6.151L5.5973 5.782L5.9202 5.422L6.2547 5.072L6.601 4.733L6.9592 4.404L7.3297 4.086L7.7124 3.779L8.1077 3.484L8.5158 3.2L8.9367 2.929L9.3708 2.67L9.8182 2.423L10.279 2.19L10.7535 1.969L11.2419 1.762L11.7443 1.569L12.261 1.39L12.7921 1.226L12.9991 1.163L13.209 1.102L13.4217 1.042L13.6369 0.984L13.8546 0.928L14.0748 0.873L14.2972 0.82L14.5218 0.768L14.7485 0.718L14.9772 0.669L15.2077 0.622L15.44 0.577L15.674 0.534L15.9095 0.492L16.1465 0.451L16.3848 0.413L16.6243 0.376L16.8649 0.341L17.1066 0.307L17.3492 0.275L17.5926 0.245L17.8366 0.217L18.0813 0.19L18.3265 0.165L18.572 0.142L18.8179 0.12L19.0639 0.1L19.3099 0.082L19.5559 0.066L19.8018 0.052L20.0474 0.039L20.2926 0.028L20.5374 0.019L20.7816 0.012L21.0252 0.006L21.2679 0.002L21.5097 0L21.7506 0L21.9903 0.002L22.2288 0.006L22.466 0.011L22.7018 0.018L22.9361 0.028L23.1687 0.039L23.3996 0.052L23.6636 0.068L23.9252 0.083L24.1844 0.098L24.4413 0.114L24.6959 0.129L24.9485 0.144L25.199 0.159L25.4476 0.175L25.6944 0.191L25.9394 0.207L26.1829 0.224L26.4247 0.242L26.6652 0.26L26.9043 0.28L27.1421 0.3L27.3788 0.321L27.6145 0.344L27.8492 0.367L28.083 0.392L28.316 0.418L28.5484 0.446L28.7802 0.476L29.0115 0.507L29.2425 0.54L29.4731 0.575L29.7036 0.612L29.934 0.651L30.1643 0.692L30.3948 0.735L30.6254 0.781L30.8564 0.83L31.0877 0.88L31.3195 0.934L31.5519 0.99L31.785 1.05L32.0188 1.112L32.2535 1.177L32.4891 1.246L32.7258 1.317L33.2569 1.482L33.7736 1.661L34.276 1.854L34.7644 2.061L35.2389 2.281L35.6997 2.515L36.1471 2.761L36.5812 3.02L37.0021 3.292L37.4101 3.575L37.8055 3.871L38.1882 4.178L38.5587 4.496L38.9169 4.824L39.2632 5.164L39.5977 5.513L39.9206 5.873L40.2321 6.243L40.5324 6.621L40.8217 7.009L41.1001 7.406L41.3679 7.811L41.6252 8.224L41.8722 8.645L42.1092 9.074L42.3362 9.51L42.5536 9.953L42.7614 10.403L42.9599 10.859L43.1493 11.322L43.3297 11.79L43.5014 12.264L43.6645 12.743L43.8192 13.227L43.9657 13.715L44.1042 14.208L44.2349 14.705L44.358 15.206L44.4736 15.71L44.582 16.217L44.6833 16.727L44.7777 17.24L44.8655 17.755L44.9467 18.272L45.0217 18.791L45.0905 19.311L45.1535 19.832L45.2106 20.354L45.2623 20.876L45.3085 21.399L45.3496 21.921L45.3857 22.443L45.4171 22.964L45.4438 23.485L45.4661 24.004L45.4841 24.521L45.4982 25.037L45.5084 25.551L45.5149 26.062L45.5179 26.57L45.5177 27.075L45.5144 27.577L45.5081 28.075L45.5119 28.6L45.5072 29.122L45.4942 29.641L45.4728 30.158L45.4431 30.672L45.4052 31.183L45.3591 31.691L45.3048 32.195L45.2425 32.696L45.1721 33.193L45.0938 33.687L45.0074 34.176L44.9132 34.662L44.8111 35.143L44.7012 35.62L44.5836 36.092L44.4582 36.56L44.3252 37.023L44.1846 37.482L44.0364 37.935L43.8807 38.383L43.7175 38.825L43.547 39.263L43.369 39.694L43.1837 40.12L42.9911 40.54L42.7913 40.954L42.5844 41.362L42.3703 41.763L42.1491 42.158L41.9209 42.547L41.6857 42.928L41.4435 43.303L41.1945 43.671L40.9386 44.031L40.6759 44.385L40.4065 44.73L40.1304 45.069L39.8476 45.399L39.5582 45.722L39.2623 46.037L38.9598 46.343L38.6509 46.641L38.3356 46.931L38.014 47.212L37.686 47.485L37.3517 47.748L37.0113 48.003L36.6646 48.249L36.3119 48.485L35.953 48.712L35.5882 48.929L35.2173 49.136L34.8405 49.334L34.4579 49.522L34.0694 49.699L33.6751 49.867L33.2751 50.024L32.8694 50.17L32.4581 50.306L32.0412 50.431L31.6187 50.544L31.1907 50.647L31.1153 50.662L30.9961 50.683L30.837 50.711L30.6419 50.745L30.4146 50.784L30.1591 50.827L29.8792 50.875L29.5789 50.925L29.262 50.979L28.9324 51.034L28.5941 51.091L28.2508 51.148L27.9065 51.206L27.5652 51.263L27.2306 51.319L26.9067 51.373L26.5973 51.425L26.3064 51.474L26.0378 51.52L25.7955 51.561L25.5833 51.598L25.4051 51.629L25.2648 51.654L25.1663 51.672L25.1135 51.683L25.1102 51.686L25.1089 51.684L25.0669 51.68L24.987 51.674L24.8718 51.665L24.7238 51.655L24.5458 51.644L24.3403 51.63L24.11 51.616L23.8575 51.6L23.5854 51.583L23.2964 51.564L22.9931 51.545L22.6781 51.525L22.354 51.504L22.0235 51.483L21.6892 51.461L21.3537 51.439L21.0196 51.417L20.6896 51.394L20.3663 51.372L20.0524 51.349L19.7504 51.327L19.4629 51.306L19.1927 51.284L18.9423 51.264L18.7144 51.244L18.5116 51.225L18.3365 51.207L18.1917 51.19L18.0799 51.174M33.6368 26.057L33.6725 25.671L33.7003 25.287L33.7203 24.906L33.7325 24.527L33.737 24.152L33.7337 23.78L33.7227 23.412L33.7042 23.047L33.678 22.686L33.6444 22.328L33.6032 21.975L33.5546 21.626L33.4986 21.281L33.4353 20.94L33.3647 20.604L33.2868 20.273L33.2017 19.947L33.1095 19.626L33.0102 19.31L32.9037 19L32.7903 18.695L32.6699 18.396L32.5425 18.102L32.4083 17.815L32.2672 17.533L32.1193 17.258L31.9647 16.99L31.8034 16.728L31.6354 16.473L31.4608 16.225L31.2796 15.984L31.092 15.75L30.8978 15.523L30.6972 15.304L30.4903 15.093L30.277 14.889L30.0574 14.694L29.8316 14.507L29.5996 14.328L29.3614 14.157L29.1172 13.995L28.8668 13.842L28.6105 13.698L28.3482 13.562L28.08 13.436L27.8058 13.32L27.5259 13.213L27.2402 13.115L26.9487 13.028L26.6516 12.95L26.3488 12.883L26.0404 12.826L25.7264 12.779L25.407 12.743L25.0821 12.717L24.7517 12.703L24.416 12.7L24.075 12.708L23.7287 12.727L23.3771 12.758L23.0355 12.729L22.6987 12.712L22.3667 12.706L22.0396 12.713L21.7174 12.73L21.4001 12.759L21.0879 12.799L20.7808 12.85L20.4788 12.912L20.182 12.984L19.8905 13.066L19.6042 13.159L19.3233 13.262L19.0479 13.375L18.7778 13.498L18.5133 13.63L18.2544 13.771L18.0011 13.922L17.7534 14.082L17.5115 14.251L17.2754 14.429L17.0451 14.615L16.8206 14.81L16.6022 15.013L16.3897 15.224L16.1833 15.443L15.983 15.67L15.7888 15.904L15.6009 16.146L15.4192 16.395L15.2438 16.652L15.0749 16.915L14.9123 17.185L14.7562 17.462L14.6067 17.745L14.4637 18.034L14.3274 18.33L14.1978 18.632L14.0749 18.939L13.9589 19.252L13.8496 19.571L13.7473 19.895L13.652 20.224L13.5637 20.558L13.4824 20.897L13.4083 21.24L13.3414 21.589L13.2817 21.941L13.2292 22.298L13.1841 22.658L13.1465 23.023L13.1162 23.391L13.0935 23.762L13.0783 24.137L13.0707 24.516L13.0708 24.897L13.0785 25.281L13.0941 25.668L13.1175 26.057L13.083 26.455L13.057 26.85L13.0394 27.241L13.0301 27.629L13.0291 28.013L13.0363 28.394L13.0516 28.77L13.0749 29.143L13.1062 29.511L13.1453 29.875L13.1922 30.234L13.2469 30.589L13.3091 30.939L13.3789 31.284L13.4561 31.624L13.5408 31.958L13.6328 32.288L13.7319 32.611L13.8383 32.929L13.9517 33.242L14.0721 33.548L14.1994 33.849L14.3336 34.143L14.4745 34.43L14.6221 34.712L14.7763 34.986L14.937 35.254L15.1041 35.515L15.2776 35.769L15.4574 36.016L15.6433 36.255L15.8354 36.487L16.0336 36.711L16.2377 36.927L16.4476 37.136L16.6634 37.336L16.8849 37.528L17.1121 37.712L17.3448 37.887L17.583 38.054L17.8266 38.212L18.0755 38.361L18.3297 38.501L18.5891 38.632L18.8535 38.753L19.123 38.865L19.3974 38.967L19.6766 39.06L19.9606 39.143L20.2493 39.215L20.5427 39.278L20.8405 39.33L21.1428 39.371L21.4495 39.402L21.7605 39.422L22.0757 39.432L22.3951 39.43L22.7185 39.417L23.0458 39.392L23.3771 39.357L23.6904 39.4L24.0007 39.431L24.3079 39.45L24.612 39.458L24.9129 39.454L25.2104 39.439L25.5044 39.412L25.795 39.375L26.0819 39.327L26.365 39.269L26.6444 39.199L26.9198 39.12L27.1912 39.031L27.4585 38.931L27.7216 38.822L27.9805 38.703L28.2349 38.575L28.4848 38.437L28.7302 38.29L28.9709 38.134L29.2068 37.97L29.4378 37.796L29.6639 37.615L29.8849 37.425L30.1008 37.227L30.3114 37.02L30.5166 36.806L30.7165 36.585L30.9108 36.356L31.0994 36.119L31.2824 35.875L31.4595 35.625L31.6307 35.367L31.7959 35.103L31.955 34.833L32.1079 34.556L32.2545 34.273L32.3947 33.984L32.5284 33.689L32.6556 33.388L32.776 33.082L32.8897 32.77L32.9966 32.454L33.0964 32.132L33.1892 31.806L33.2749 31.474L33.3533 31.139L33.4244 30.799L33.488 30.454L33.5441 30.106L33.5926 29.754L33.6333 29.398L33.6662 29.039L33.6912 28.676L33.7083 28.31L33.7172 27.941L33.7179 27.57L33.7103 27.195L33.6943 26.818L33.6698 26.439L33.6368 26.057"/>

<path id="shape0"
  transform="matrix(0.80281683546618 0 0 0.80281683546618 6.25672864087163 44.3236763133266)"
  fill="#333333"
  stroke="#000000"
  stroke-width="0.24"
  stroke-linecap="square"
  stroke-linejoin="bevel"
  d="M7.33516 0.692634C3.43308 0.531103 -0.46491 0.372932 0.0451582 3.84263L0.0635701 45.5872C-0.272486 49.3369 1.24157 51.4048 5.87599 50.6359L10.8399 50.6571C11.5019 50.2655 12.0657 49.7758 12.5581 49.2146L12.5794 20.6723C15.5168 17.88 17.2697 14.1253 22.5452 13.2326L24.5252 13.2326C27.7125 12.914 27.5287 17.6888 27.7226 21.9635C28.2121 29.0769 27.0618 38.7649 27.6977 45.5801C28.2864 47.8572 26.4047 51.2812 33.2304 50.6624L38.2739 50.6624C39.0379 50.437 39.5761 50.018 39.9444 49.4533L39.9752 20.7176C39.1567 12.2666 39.2469 4.32958 30.4824 1.01001C29.4411 0.599812 28.2692 0.268517 26.9477 0.0251269L22.6768 0C18.4063 1.32985 14.6984 3.05691 11.3889 5.06513L11.3627 1.69013L9.88528 0.731848C9.88528 0.731848 9.03524 0.718777 7.33516 0.692634Z"/>

<path id="shape1"
  transform="matrix(0.80281683546618 0 0 0.80281683546618 43.0272311157252 44.2109788370076)"
  fill="#333333"
  stroke="#000000"
  stroke-width="0.2424"
  stroke-linecap="square"
  stroke-linejoin="bevel"
  d="M18.0799 51.174L17.7672 51.125L17.4477 51.074L17.125 51.022L16.8028 50.97L16.4846 50.918L16.1742 50.868L15.8752 50.819L15.5911 50.772L15.3256 50.728L15.0824 50.688L14.8651 50.651L14.6773 50.619L14.5226 50.592L14.4047 50.571L14.3272 50.556L13.8992 50.453L13.4767 50.339L13.0598 50.214L12.6484 50.079L12.2427 49.932L11.8427 49.775L11.4485 49.608L11.06 49.431L10.6773 49.243L10.3006 49.045L9.9297 48.838L9.5649 48.62L9.206 48.394L8.8533 48.157L8.5066 47.912L8.1662 47.657L7.8319 47.393L7.5039 47.121L7.1823 46.84L6.8669 46.55L6.558 46.252L6.2556 45.945L5.9597 45.631L5.6703 45.308L5.3875 44.977L5.1114 44.639L4.842 44.293L4.5793 43.94L4.3234 43.579L4.0744 43.212L3.8322 42.837L3.597 42.455L3.3688 42.067L3.1476 41.672L2.9335 41.27L2.7265 40.863L2.5267 40.449L2.3342 40.029L2.1489 39.603L1.9709 39.171L1.8003 38.734L1.6372 38.291L1.4815 37.843L1.3333 37.39L1.1927 36.932L1.0596 36.469L0.9343 36.001L0.8166 35.529L0.7068 35.052L0.6047 34.57L0.5105 34.085L0.4241 33.595L0.3458 33.102L0.2754 32.605L0.213 32.104L0.1588 31.6L0.1127 31.092L0.0748 30.581L0.0451 30.067L0.0237 29.55L0.0107 29.03L0.006 28.508L0.0097 27.983L0.0035 27.485L0.0002 26.984L0 26.478L0.003 25.97L0.0095 25.459L0.0197 24.946L0.0337 24.43L0.0518 23.913L0.0741 23.394L0.1008 22.873L0.1321 22.352L0.1683 21.83L0.2094 21.307L0.2556 20.785L0.3073 20.262L0.3644 19.74L0.4273 19.219L0.4962 18.699L0.5711 18.181L0.6524 17.664L0.7402 17.149L0.8346 16.636L0.9359 16.126L1.0443 15.618L1.1599 15.114L1.283 14.614L1.4137 14.117L1.5522 13.624L1.6987 13.135L1.8534 12.651L2.0165 12.172L2.1882 11.699L2.3686 11.23L2.558 10.768L2.7565 10.312L2.9643 9.862L3.1817 9.419L3.4087 8.983L3.6457 8.554L3.8927 8.133L4.15 7.719L4.4178 7.314L4.6962 6.918L4.9855 6.53L5.2858 6.151L5.5973 5.782L5.9202 5.422L6.2547 5.072L6.601 4.733L6.9592 4.404L7.3297 4.086L7.7124 3.779L8.1077 3.484L8.5158 3.2L8.9367 2.929L9.3708 2.67L9.8182 2.423L10.279 2.19L10.7535 1.969L11.2419 1.762L11.7443 1.569L12.261 1.39L12.7921 1.226L12.9991 1.163L13.209 1.102L13.4217 1.042L13.6369 0.984L13.8546 0.928L14.0748 0.873L14.2972 0.82L14.5218 0.768L14.7485 0.718L14.9772 0.669L15.2077 0.622L15.44 0.577L15.674 0.534L15.9095 0.492L16.1465 0.451L16.3848 0.413L16.6243 0.376L16.8649 0.341L17.1066 0.307L17.3492 0.275L17.5926 0.245L17.8366 0.217L18.0813 0.19L18.3265 0.165L18.572 0.142L18.8179 0.12L19.0639 0.1L19.3099 0.082L19.5559 0.066L19.8018 0.052L20.0474 0.039L20.2926 0.028L20.5374 0.019L20.7816 0.012L21.0252 0.006L21.2679 0.002L21.5097 0L21.7506 0L21.9903 0.002L22.2288 0.006L22.466 0.011L22.7018 0.018L22.9361 0.028L23.1687 0.039L23.3996 0.052L23.6636 0.068L23.9252 0.083L24.1844 0.098L24.4413 0.114L24.6959 0.129L24.9485 0.144L25.199 0.159L25.4476 0.175L25.6944 0.191L25.9394 0.207L26.1829 0.224L26.4247 0.242L26.6652 0.26L26.9043 0.28L27.1421 0.3L27.3788 0.321L27.6145 0.344L27.8492 0.367L28.083 0.392L28.316 0.418L28.5484 0.446L28.7802 0.476L29.0115 0.507L29.2425 0.54L29.4731 0.575L29.7036 0.612L29.934 0.651L30.1643 0.692L30.3948 0.735L30.6254 0.781L30.8564 0.83L31.0877 0.88L31.3195 0.934L31.5519 0.99L31.785 1.05L32.0188 1.112L32.2535 1.177L32.4891 1.246L32.7258 1.317L33.2569 1.482L33.7736 1.661L34.276 1.854L34.7644 2.061L35.2389 2.281L35.6997 2.515L36.1471 2.761L36.5812 3.02L37.0021 3.292L37.4101 3.575L37.8055 3.871L38.1882 4.178L38.5587 4.496L38.9169 4.824L39.2632 5.164L39.5977 5.513L39.9206 5.873L40.2321 6.243L40.5324 6.621L40.8217 7.009L41.1001 7.406L41.3679 7.811L41.6252 8.224L41.8722 8.645L42.1092 9.074L42.3362 9.51L42.5536 9.953L42.7614 10.403L42.9599 10.859L43.1493 11.322L43.3297 11.79L43.5014 12.264L43.6645 12.743L43.8192 13.227L43.9657 13.715L44.1042 14.208L44.2349 14.705L44.358 15.206L44.4736 15.71L44.582 16.217L44.6833 16.727L44.7777 17.24L44.8655 17.755L44.9467 18.272L45.0217 18.791L45.0905 19.311L45.1535 19.832L45.2106 20.354L45.2623 20.876L45.3085 21.399L45.3496 21.921L45.3857 22.443L45.4171 22.964L45.4438 23.485L45.4661 24.004L45.4841 24.521L45.4982 25.037L45.5084 25.551L45.5149 26.062L45.5179 26.57L45.5177 27.075L45.5144 27.577L45.5081 28.075L45.5119 28.6L45.5072 29.122L45.4942 29.641L45.4728 30.158L45.4431 30.672L45.4052 31.183L45.3591 31.691L45.3048 32.195L45.2425 32.696L45.1721 33.193L45.0938 33.687L45.0074 34.176L44.9132 34.662L44.8111 35.143L44.7012 35.62L44.5836 36.092L44.4582 36.56L44.3252 37.023L44.1846 37.482L44.0364 37.935L43.8807 38.383L43.7175 38.825L43.547 39.263L43.369 39.694L43.1837 40.12L42.9911 40.54L42.7913 40.954L42.5844 41.362L42.3703 41.763L42.1491 42.158L41.9209 42.547L41.6857 42.928L41.4435 43.303L41.1945 43.671L40.9386 44.031L40.6759 44.385L40.4065 44.73L40.1304 45.069L39.8476 45.399L39.5582 45.722L39.2623 46.037L38.9598 46.343L38.6509 46.641L38.3356 46.931L38.014 47.212L37.686 47.485L37.3517 47.748L37.0113 48.003L36.6646 48.249L36.3119 48.485L35.953 48.712L35.5882 48.929L35.2173 49.136L34.8405 49.334L34.4579 49.522L34.0694 49.699L33.6751 49.867L33.2751 50.024L32.8694 50.17L32.4581 50.306L32.0412 50.431L31.6187 50.544L31.1907 50.647L31.1153 50.662L30.9961 50.683L30.837 50.711L30.6419 50.745L30.4146 50.784L30.1591 50.827L29.8792 50.875L29.5789 50.925L29.262 50.979L28.9324 51.034L28.5941 51.091L28.2508 51.148L27.9065 51.206L27.5652 51.263L27.2306 51.319L26.9067 51.373L26.5973 51.425L26.3064 51.474L26.0378 51.52L25.7955 51.561L25.5833 51.598L25.4051 51.629L25.2648 51.654L25.1663 51.672L25.1135 51.683L25.1102 51.686L25.1089 51.684L25.0669 51.68L24.987 51.674L24.8718 51.665L24.7238 51.655L24.5458 51.644L24.3403 51.63L24.11 51.616L23.8575 51.6L23.5854 51.583L23.2964 51.564L22.9931 51.545L22.6781 51.525L22.354 51.504L22.0235 51.483L21.6892 51.461L21.3537 51.439L21.0196 51.417L20.6896 51.394L20.3663 51.372L20.0524 51.349L19.7504 51.327L19.4629 51.306L19.1927 51.284L18.9423 51.264L18.7144 51.244L18.5116 51.225L18.3365 51.207L18.1917 51.19L18.0799 51.174M33.6368 26.057L33.6725 25.671L33.7003 25.287L33.7203 24.906L33.7325 24.527L33.737 24.152L33.7337 23.78L33.7227 23.412L33.7042 23.047L33.678 22.686L33.6444 22.328L33.6032 21.975L33.5546 21.626L33.4986 21.281L33.4353 20.94L33.3647 20.604L33.2868 20.273L33.2017 19.947L33.1095 19.626L33.0102 19.31L32.9037 19L32.7903 18.695L32.6699 18.396L32.5425 18.102L32.4083 17.815L32.2672 17.533L32.1193 17.258L31.9647 16.99L31.8034 16.728L31.6354 16.473L31.4608 16.225L31.2796 15.984L31.092 15.75L30.8978 15.523L30.6972 15.304L30.4903 15.093L30.277 14.889L30.0574 14.694L29.8316 14.507L29.5996 14.328L29.3614 14.157L29.1172 13.995L28.8668 13.842L28.6105 13.698L28.3482 13.562L28.08 13.436L27.8058 13.32L27.5259 13.213L27.2402 13.115L26.9487 13.028L26.6516 12.95L26.3488 12.883L26.0404 12.826L25.7264 12.779L25.407 12.743L25.0821 12.717L24.7517 12.703L24.416 12.7L24.075 12.708L23.7287 12.727L23.3771 12.758L23.0355 12.729L22.6987 12.712L22.3667 12.706L22.0396 12.713L21.7174 12.73L21.4001 12.759L21.0879 12.799L20.7808 12.85L20.4788 12.912L20.182 12.984L19.8905 13.066L19.6042 13.159L19.3233 13.262L19.0479 13.375L18.7778 13.498L18.5133 13.63L18.2544 13.771L18.0011 13.922L17.7534 14.082L17.5115 14.251L17.2754 14.429L17.0451 14.615L16.8206 14.81L16.6022 15.013L16.3897 15.224L16.1833 15.443L15.983 15.67L15.7888 15.904L15.6009 16.146L15.4192 16.395L15.2438 16.652L15.0749 16.915L14.9123 17.185L14.7562 17.462L14.6067 17.745L14.4637 18.034L14.3274 18.33L14.1978 18.632L14.0749 18.939L13.9589 19.252L13.8496 19.571L13.7473 19.895L13.652 20.224L13.5637 20.558L13.4824 20.897L13.4083 21.24L13.3414 21.589L13.2817 21.941L13.2292 22.298L13.1841 22.658L13.1465 23.023L13.1162 23.391L13.0935 23.762L13.0783 24.137L13.0707 24.516L13.0708 24.897L13.0785 25.281L13.0941 25.668L13.1175 26.057L13.083 26.455L13.057 26.85L13.0394 27.241L13.0301 27.629L13.0291 28.013L13.0363 28.394L13.0516 28.77L13.0749 29.143L13.1062 29.511L13.1453 29.875L13.1922 30.234L13.2469 30.589L13.3091 30.939L13.3789 31.284L13.4561 31.624L13.5408 31.958L13.6328 32.288L13.7319 32.611L13.8383 32.929L13.9517 33.242L14.0721 33.548L14.1994 33.849L14.3336 34.143L14.4745 34.43L14.6221 34.712L14.7763 34.986L14.937 35.254L15.1041 35.515L15.2776 35.769L15.4574 36.016L15.6433 36.255L15.8354 36.487L16.0336 36.711L16.2377 36.927L16.4476 37.136L16.6634 37.336L16.8849 37.528L17.1121 37.712L17.3448 37.887L17.583 38.054L17.8266 38.212L18.0755 38.361L18.3297 38.501L18.5891 38.632L18.8535 38.753L19.123 38.865L19.3974 38.967L19.6766 39.06L19.9606 39.143L20.2493 39.215L20.5427 39.278L20.8405 39.33L21.1428 39.371L21.4495 39.402L21.7605 39.422L22.0757 39.432L22.3951 39.43L22.7185 39.417L23.0458 39.392L23.3771 39.357L23.6904 39.4L24.0007 39.431L24.3079 39.45L24.612 39.458L24.9129 39.454L25.2104 39.439L25.5044 39.412L25.795 39.375L26.0819 39.327L26.365 39.269L26.6444 39.199L26.9198 39.12L27.1912 39.031L27.4585 38.931L27.7216 38.822L27.9805 38.703L28.2349 38.575L28.4848 38.437L28.7302 38.29L28.9709 38.134L29.2068 37.97L29.4378 37.796L29.6639 37.615L29.8849 37.425L30.1008 37.227L30.3114 37.02L30.5166 36.806L30.7165 36.585L30.9108 36.356L31.0994 36.119L31.2824 35.875L31.4595 35.625L31.6307 35.367L31.7959 35.103L31.955 34.833L32.1079 34.556L32.2545 34.273L32.3947 33.984L32.5284 33.689L32.6556 33.388L32.776 33.082L32.8897 32.77L32.9966 32.454L33.0964 32.132L33.1892 31.806L33.2749 31.474L33.3533 31.139L33.4244 30.799L33.488 30.454L33.5441 30.106L33.5926 29.754L33.6333 29.398L33.6662 29.039L33.6912 28.676L33.7083 28.31L33.7172 27.941L33.7179 27.57L33.7103 27.195L33.6943 26.818L33.6698 26.439L33.6368 26.057"/>

<path id="shape2"
  transform="matrix(0.80281683546618 0 0 0.80281683546618 80.0660675764803 35.9617887036497)"
  fill="#333333"
  stroke="#000000"
  stroke-width="0.2424"
  stroke-linecap="square"
  stroke-linejoin="bevel"
  d="M13.2872 0.0983129C7.01736 0.202487 7.25837 1.14415 7.07721 2.55831L7.19721 11.2883L2.37588 11.3279C0.674356 12.0343 0.21906 13.5167 0 15.1462L0.0572088 18.5033C-0.0954813 22.6248 2.31188 23.9481 5.57907 24.3315L7.33977 24.3952L7.2572 46.8683C8.15953 54.3706 11.5825 60.5411 20.5026 61.5713L25.9437 61.5395C29.3487 61.281 32.4337 57.6915 31.4375 55.2716C31.3326 53.4296 31.2457 52.2392 30.9122 50.1383C30.8688 47.687 30.1882 46.6797 28.8706 47.1162L25.8572 48.2183L22.7072 48.3383C21.1855 47.5872 19.8899 46.5873 19.5572 44.5283L19.5272 24.3083L26.2707 24.5228C29.0548 25.2541 31.8578 20.495 31.3107 18.5828C31.3292 18.4486 31.3514 17.3172 31.3772 15.1883C31.5445 13.6206 29.7501 11.1648 27.2802 11.243L19.601 11.1581L19.2616 1.73948C19.0667 0.926198 18.0235 0.415896 16.716 0C16.716 0 15.5731 0.032771 13.2872 0.0983129Z"/>

<path id="shape011"
  transform="translate(99.0835999909169, 9.13699990916948)"
  fill="#000000"
  fill-rule="evenodd"
  stroke="#000000"
  stroke-width="1.00999999999992"
  stroke-linecap="square"
  stroke-linejoin="bevel"
  d="M103.947 52.3005L103.922 50.6715L103.849 49.0549L103.727 47.4514L103.557 45.8617L103.341 44.2867L103.078 42.7269L102.77 41.1831L102.418 39.6561L102.021 38.1466L101.582 36.6553L101.099 35.1828L100.575 33.73L100.01 32.2976L99.4054 30.8863L98.7604 29.4967L98.0764 28.1297L97.3534 26.786L96.5944 25.4662L95.7974 24.1711L94.9654 22.9015L94.0974 21.658L93.1944 20.4414L92.2584 19.2523L91.2884 18.0916L90.2864 16.9599L89.2534 15.858L88.1884 14.7866L87.0934 13.7464L85.9684 12.7381L84.8154 11.7625L83.6334 10.8202L82.4244 9.9121L81.1894 9.0388L79.9274 8.201L78.6404 7.3995L77.3284 6.635L75.9934 5.9082L74.6354 5.2199L73.2544 4.5707L71.8514 3.9615L70.4284 3.3928L68.9844 2.8655L67.5214 2.3802L66.0394 1.9377L64.5394 1.5388L63.0214 1.184L61.4874 0.8742L59.9374 0.6101L58.3724 0.3924L56.7924 0.2218L55.1994 0.099L53.5924 0.0249L51.9734 0L50.3544 0.0249L48.7484 0.099L47.1544 0.2218L45.5754 0.3924L44.0104 0.6101L42.4604 0.8742L40.9254 1.184L39.4084 1.5388L37.9084 1.9377L36.4264 2.3802L34.9634 2.8655L33.5194 3.3928L32.0954 3.9615L30.6934 4.5707L29.3124 5.2199L27.9544 5.9082L26.6184 6.635L25.3074 7.3995L24.0204 8.201L22.7584 9.0388L21.5224 9.9121L20.3134 10.8202L19.1324 11.7625L17.9784 12.7381L16.8544 13.7464L15.7594 14.7866L14.6944 15.858L13.6604 16.9599L12.6584 18.0916L11.6894 19.2523L10.7524 20.4414L9.8504 21.658L8.9824 22.9015L8.1494 24.1711L7.3534 25.4662L6.5934 26.786L5.8714 28.1297L5.1874 29.4967L4.5424 30.8863L3.9364 32.2976L3.3714 33.73L2.8474 35.1828L2.3654 36.6553L1.9254 38.1466L1.5294 39.6561L1.1764 41.1831L0.8684 42.7269L0.6063 44.2867L0.39 45.8617L0.2204 47.4514L0.0984 49.0549L0.0247 50.6715L0 52.3005L0.0247 53.9295L0.0984 55.5462L0.2204 57.1496L0.39 58.7393L0.6063 60.3144L0.8684 61.8741L1.1764 63.4179L1.5294 64.9449L1.9254 66.4544L2.3654 67.9457L2.8474 69.4182L3.3714 70.871L3.9364 72.3034L4.5424 73.7147L5.1874 75.1043L5.8714 76.4713L6.5934 77.815L7.3534 79.1348L8.1494 80.4299L8.9824 81.6995L9.8504 82.943L10.7524 84.1597L11.6894 85.3487L12.6584 86.5094L13.6604 87.6411L14.6944 88.743L15.7594 89.814L16.8544 90.855L17.9784 91.863L19.1324 92.839L20.3134 93.781L21.5224 94.689L22.7584 95.562L24.0204 96.4L25.3074 97.202L26.6184 97.966L27.9544 98.693L29.3124 99.381L30.6934 100.03L32.0954 100.64L33.5194 101.208L34.9634 101.736L36.4264 102.221L37.9084 102.663L39.4084 103.062L40.9254 103.417L42.4604 103.727L44.0104 103.991L45.5754 104.209L47.1544 104.379L48.7484 104.502L50.3544 104.576L51.9734 104.601L53.0954 104.589L54.2114 104.553L55.3214 104.494L56.4244 104.412L57.5224 104.307L58.6124 104.178L59.6954 104.028L60.7714 103.855L61.8404 103.66L62.9014 103.443L63.9544 103.205L64.9994 102.945L66.0354 102.664L67.0634 102.363L68.0824 102.04L69.0914 101.698L70.0924 101.335L71.0834 100.953L72.0634 100.551L73.0344 100.129L73.9954 99.688L74.9454 99.228L75.8844 98.75L76.8124 98.253L77.7284 97.738L78.6344 97.205L79.5274 96.655L80.4094 96.086L81.4496 95.4264L89.1039 102.488L102.884 88.1786C98.3068 83.5673 95.8614 81.0483 95.5475 80.6214L96.3434 79.5511L96.8714 78.6636L97.3814 77.7649L97.8744 76.8551L98.3504 75.9346L98.8084 75.0034L99.2484 74.062L99.6704 73.1103L100.074 72.1488L100.458 71.1777L100.824 70.1971L101.171 69.2072L101.499 68.2084L101.807 67.2008L102.096 66.1847L102.364 65.1602L102.612 64.1277L102.84 63.0873L103.048 62.0392L103.234 60.9838L103.399 59.9212L103.543 58.8516L103.666 57.7752L103.766 56.6924L103.845 55.6033L103.902 54.5081L103.936 53.4071L103.947 52.3005M97.7904 52.2457L97.7624 50.6256L97.6784 49.0195L97.5404 47.4283L97.3484 45.853L97.1034 44.2944L96.8074 42.7536L96.4604 41.2313L96.0624 39.7286L95.6164 38.2463L95.1214 36.7853L94.5794 35.3466L93.9914 33.931L93.3574 32.5396L92.6794 31.1731L91.9574 29.8326L91.1934 28.5189L90.3874 27.233L89.5404 25.9757L88.6534 24.748L87.7274 23.5508L86.7644 22.385L85.7634 21.2515L84.7264 20.1513L83.6534 19.0852L82.5474 18.0542L81.4074 17.0592L80.2344 16.1011L79.0304 15.1808L77.7954 14.2992L76.5304 13.4573L75.2374 12.656L73.9154 11.8961L72.5674 11.1786L71.1924 10.5044L69.7934 9.8745L68.3694 9.2896L66.9224 8.7509L65.4524 8.2591L63.9614 7.8151L62.4504 7.42L60.9184 7.0746L59.3684 6.7798L57.8014 6.5366L56.2164 6.3458L54.6164 6.2084L53.0004 6.1253L51.3714 6.0974L49.7414 6.1253L48.1254 6.2084L46.5254 6.3458L44.9404 6.5366L43.3734 6.7798L41.8234 7.0746L40.2914 7.42L38.7804 7.8151L37.2894 8.2591L35.8194 8.7509L34.3724 9.2896L32.9484 9.8745L31.5494 10.5044L30.1744 11.1786L28.8264 11.8961L27.5044 12.656L26.2114 13.4573L24.9464 14.2992L23.7114 15.1808L22.5074 16.1011L21.3344 17.0592L20.1944 18.0542L19.0884 19.0852L18.0154 20.1513L16.9784 21.2515L15.9774 22.385L15.0144 23.5508L14.0884 24.748L13.2014 25.9757L12.3544 27.233L11.5484 28.5189L10.7844 29.8326L10.0624 31.1731L9.3844 32.5396L8.7504 33.931L8.1624 35.3466L7.6204 36.7853L7.1264 38.2463L6.6794 39.7286L6.2824 41.2313L5.9344 42.7536L5.6384 44.2944L5.3934 45.853L5.2014 47.4283L5.0634 49.0195L4.9794 50.6256L4.9514 52.2457L4.9794 53.8658L5.0634 55.4719L5.2014 57.0631L5.3934 58.6384L5.6384 60.1969L5.9344 61.7378L6.2824 63.26L6.6794 64.7628L7.1264 66.2451L7.6204 67.7061L8.1624 69.1448L8.7504 70.5603L9.3844 71.9518L10.0624 73.3182L10.7844 74.6588L11.5484 75.9724L12.3544 77.2584L13.2014 78.5157L14.0884 79.7434L15.0144 80.9406L15.9774 82.1064L16.9784 83.2398L18.0154 84.3401L19.0884 85.4061L20.1944 86.4371L21.3344 87.4321L22.5074 88.39L23.7114 89.311L24.9464 90.192L26.2114 91.034L27.5044 91.835L28.8264 92.595L30.1744 93.313L31.5494 93.987L32.9484 94.617L34.3724 95.202L35.8194 95.74L37.2894 96.232L38.7804 96.676L40.2914 97.071L41.8234 97.417L43.3734 97.712L44.9404 97.955L46.5254 98.146L48.1254 98.283L49.7414 98.366L51.3714 98.394L53.0004 98.366L54.6164 98.283L56.2164 98.146L57.8014 97.955L59.3684 97.712L60.9184 97.417L62.4504 97.071L63.9614 96.676L65.4524 96.232L66.9224 95.74L68.3694 95.202L69.7934 94.617L71.1924 93.987L72.5674 93.313L73.9154 92.595L75.2374 91.835L76.5304 91.034L77.7954 90.192L79.0304 89.311L80.2344 88.39L81.4074 87.4321L82.5474 86.4371L83.6534 85.4061L84.7264 84.3401L85.7634 83.2398L86.7644 82.1064L87.7274 80.9406L88.6534 79.7434L89.5404 78.5157L90.3874 77.2584L91.1934 75.9724L91.9574 74.6588L92.6794 73.3182L93.3574 71.9518L93.9914 70.5603L94.5794 69.1448L95.1214 67.7061L95.6164 66.2451L96.0624 64.7628L96.4604 63.26L96.8074 61.7378L97.1034 60.1969L97.3484 58.6384L97.5404 57.0631L97.6784 55.4719L97.7624 53.8658L97.7904 52.2457"/>

<ellipse id="shape11"
  transform="matrix(1.25176182021233 0 0 1.25996381777643 108.128450390356 18.8849590499692)"
  rx="33.9999999999973"
  ry="33.4999999999973"
  cx="33.9999999999973"
  cy="33.4999999999973"
  fill="none"
  stroke="#000000"
  stroke-width="1.99999999999984"
  stroke-linecap="square"
  stroke-linejoin="bevel"/>

<path id="shape31"
  transform="translate(192.657563611157, 102.29565279443)"
  fill="none" stroke="#000000"
  stroke-width="4.9999999999996"
  stroke-linecap="square"
  stroke-linejoin="bevel"
  d="M0 11.2253L10.916 0"/>

<path id="shape41"
  transform="translate(194.778888482074, 103.562505732372)"
  fill="#000000"
  fill-rule="evenodd"
  stroke="#000000"
  stroke-width="1"
  stroke-linecap="square"
  stroke-linejoin="bevel"
  d="M0 13.8475L41.5425 55.8762L55.3149 42L13.8149 0C4.60654 9.0625 0.00158162 13.6784 0 13.8475Z"/>

<path id="shape51"
  transform="translate(238.000006830861, 147.375004154528)"
  fill="#000000"
  fill-rule="evenodd"
  stroke="#000000"
  stroke-width="1.00999999999992"
  stroke-linecap="square"
  stroke-linejoin="bevel"
  d="M0 13.625C2.73452 16.9254 6.40372 21.2302 12.9345 18.3973L18.2378 13.5802C22.2414 7.63181 17.4017 3.4137 13.25 0C13.25 0 8.83333 4.54167 0 13.625Z"/>

<path id="shape01"
  transform="translate(112.270555134692, 61.2303268461428)"
  fill="#000000"
  fill-rule="evenodd"
  stroke="#000000"
  stroke-width="1"
  stroke-linecap="round"
  stroke-linejoin="bevel"
  d="M0 3.30757L0.169121 4.87049L0.399954 6.41242L0.691182 7.93222L0.992175 9.23L0.954919 9.22979L1.26543 10.2467L1.36265 10.6059L1.76763 11.9124L2.2175 13.1977L2.71131 14.4607L3.24809 15.7009L3.82689 16.9172L4.44676 18.1089L5.10673 19.2751L5.80585 20.415L6.54317 21.5278L7.31772 22.6126L8.12855 23.6687L8.9747 24.6951L9.85521 25.6911L10.7691 26.6558L11.7155 27.5884L12.6934 28.488L13.7018 29.3539L14.7398 30.1851L15.8064 30.9809L16.9007 31.7405L18.0217 32.4629L19.1684 33.1474L20.3399 33.7932L21.5353 34.3993L22.7536 34.965L23.9938 35.4895L25.2549 35.9719L26.5361 36.4113L27.8363 36.807L29.1546 37.1581L30.4901 37.4638L31.8417 37.7233L33.2086 37.9357L34.5898 38.1002L35.9842 38.2159L37.391 38.2821L38.8092 38.2978L40.2379 38.2624L41.7012 38.1727L43.1487 38.0303L44.5797 37.8361L45.993 37.5911L47.3878 37.2963L48.7632 36.9526L50.118 36.5611L51.4515 36.1228L52.7627 35.6385L54.0506 35.1094L55.3142 34.5363L56.5526 33.9203L57.7649 33.2624L58.9501 32.5635L60.1072 31.8246L61.2354 31.0466L62.3336 30.2307L63.4008 29.3777L64.4363 28.4887L65.4389 27.5646L66.4078 26.6064L67.342 25.6151L68.2405 24.5917L69.1024 23.5371L69.9268 22.4524L70.7126 21.3384L71.459 20.1963L72.165 19.027L72.8296 17.8314L73.4519 16.6106L74.0309 15.3656L74.5657 14.0972L75.0553 12.8065L75.4989 11.4946L75.8953 10.1623L76.2437 8.8106L76.4816 7.7435L76.6892 6.66568L76.866 5.57763L77.0118 4.47979L77.1259 3.37264L77.208 2.25665L77.2576 1.13228L77.2742 0C71.9831 50.8355 3.20627 39.1027 0 3.30757"/>
</svg>
