<?xml version="1.0" standalone="no"?>
<!DOCTYPE svg PUBLIC "-//W3C//DTD SVG 20010904//EN" "http://www.w3.org/TR/2001/REC-SVG-20010904/DTD/svg10.dtd">

<svg xmlns="http://www.w3.org/2000/svg" 
    xmlns:xlink="http://www.w3.org/1999/xlink"
    width="155.28pt"
    height="158.4pt"
    viewBox="0 0 155.28 158.4">
<defs/>

<path id="shape0"
  transform="matrix(1.0000000157226 0 0 1.0000000157226 14.4600079513102 14.7300129239047)" 
  fill="#ff3d3d"
  fill-rule="evenodd"
  stroke="#ff3535"
  stroke-width="0.7224"
  stroke-linecap="square"
  stroke-linejoin="bevel"
  d="M0.103451 37.2207L0 90.63L37.1947 127.706L90.57 127.77L127.65 90.66L127.818 37.2737L90.5459 0.12937L37.23 0L0.103451 37.2207"/>

<path id="shape1"
  transform="matrix(1.0000000157226 0 0 1.0000000157226 7.02000179104132 6.94686496004204)"
  fill="none"
  stroke="#ff2a2a"
  stroke-width="3.6"
  stroke-linecap="round"
  stroke-linejoin="bevel"
  d="M41.6225 0C33.298 8.32462 19.4238 22.199 0 41.6231L2.72967e-06 101.713L41.2831 143.168L100.871 143.253L143.04 101.203L142.873 41.8218L101.115 0.178142L41.6225 0"/>

<path id="shape2"
  transform="matrix(1.0000000157226 0 0 1.0000000157226 105.836258667973 99.0862617373048)"
  fill="#ffffff"
  fill-rule="evenodd"
  stroke-opacity="0"
  stroke="#000000"
  stroke-width="0"
  stroke-linecap="square"
  stroke-linejoin="bevel"
  d="M0 0.502501L4.70049e-06 18.51L3.37125 18.5175L3.61386 6.76716C4.46369 5.53274 5.17681 4.18302 6.82124 3.61874L7.32374 3.61874C8.83238 3.80797 8.68623 5.82082 8.88372 7.45498L12.495 7.4775L12.4988 6.03376C12.381 2.68488 11.0624 0.61588 8.35501 0.0266677C8.15449 -0.0110792 7.92797 -0.00981907 7.67089 0.0372743C4.67582 0.288822 4.24109 1.90926 3.13124 3.16874L3.12595 0.493352C3.12949 0.493352 2.0875 0.496402 0 0.502501Z"/>

<path id="shape3"
  transform="matrix(1.0000000157226 0 0 1.0000000157226 37.8580005893984 99.041006415468)"
  fill="#ffffff"
  fill-rule="evenodd"
  stroke-opacity="0"
  stroke="#000000"
  stroke-width="0"
  stroke-linecap="square"
  stroke-linejoin="bevel"
  d="M0.008 9.252L0.031 8.842L0.062 8.441L0.099 8.05L0.145 7.668L0.198 7.296L0.258 6.932L0.325 6.579L0.4 6.234L0.482 5.899L0.572 5.573L0.669 5.257L0.773 4.949L0.884 4.651L1.003 4.362L1.129 4.082L1.262 3.812L1.403 3.55L1.55 3.298L1.705 3.054L1.867 2.82L2.036 2.594L2.212 2.378L2.395 2.171L2.585 1.972L2.783 1.783L2.987 1.602L3.198 1.431L3.417 1.268L3.642 1.114L3.875 0.969L4.114 0.833L4.36 0.705L4.613 0.586L4.873 0.476L5.14 0.375L5.414 0.282L5.695 0.198L5.982 0.123L6.277 0.056L6.575 0.017L6.864 0L7.144 0L7.418 0.015L7.687 0.042L7.953 0.077L8.369 0.195L8.762 0.323L9.134 0.461L9.483 0.61L9.812 0.768L10.121 0.935L10.411 1.112L10.682 1.298L10.935 1.492L11.171 1.694L11.39 1.904L11.593 2.121L11.782 2.345L11.955 2.577L12.115 2.814L12.262 3.058L12.397 3.308L12.52 3.563L12.632 3.823L12.734 4.088L12.826 4.357L12.91 4.631L12.985 4.908L13.053 5.189L13.114 5.473L13.17 5.76L13.219 6.049L13.265 6.341L13.306 6.634L13.344 6.929L13.38 7.225L13.414 7.522L13.446 7.819L13.479 8.117L13.5 10.631L3.415 10.639L3.442 11.025L3.483 11.397L3.538 11.757L3.607 12.103L3.691 12.435L3.789 12.754L3.903 13.058L4.031 13.349L4.175 13.624L4.334 13.886L4.509 14.132L4.7 14.363L4.907 14.579L5.131 14.78L5.371 14.965L5.628 15.134L5.902 15.287L6.193 15.424L6.502 15.544L6.828 15.648L9.384 15.664L12.54 14.958L12.546 18.3L8.222 19.054L6.33 19.042L6.03 18.94L5.732 18.836L5.435 18.729L5.141 18.619L4.85 18.504L4.563 18.385L4.279 18.261L4 18.13L3.726 17.993L3.457 17.849L3.195 17.697L2.939 17.536L2.69 17.367L2.448 17.187L2.215 16.997L1.991 16.796L1.776 16.583L1.57 16.357L1.375 16.119L1.19 15.867L1.016 15.601L0.855 15.32L0.705 15.023L0.569 14.71L0.446 14.38L0.336 14.033L0.241 13.668L0.161 13.283L0.096 12.88L0.048 12.456L0.015 12.012L0 11.547L0.002 11.059L0.008 9.252M3.67 7.752L9.91 7.767L9.878 7.444L9.847 7.121L9.814 6.8L9.776 6.483L9.73 6.17L9.673 5.865L9.605 5.569L9.52 5.283L9.418 5.01L9.296 4.75L9.15 4.507L8.979 4.282L8.78 4.076L8.549 3.891L8.286 3.73L7.986 3.593L7.649 3.483L7.27 3.402L6.963 3.377L6.55 3.409L6.054 3.522L5.622 3.678L5.25 3.872L4.931 4.101L4.659 4.362L4.428 4.649L4.232 4.96L4.066 5.29L3.923 5.635L3.798 5.992L3.685 6.357L3.67 7.752"/>

<path id="shape4"
  transform="matrix(1.0000000157226 0 0 1.0000000157226 55.6687543782306 99.0900053897181)"
  fill="#ffffff"
  fill-rule="evenodd"
  stroke-opacity="0"
  stroke="#000000"
  stroke-width="0"
  stroke-linecap="square"
  stroke-linejoin="bevel"
  d="M3.13876 2.90626L3.13498 0.506237L0 0.502505L0.00374769 18.5175L3.62623 18.525L3.63336 6.98617C4.3309 5.8008 4.51328 4.51492 6.74639 3.62917C7.04481 3.47977 7.23787 3.59374 7.46234 3.62917C8.85159 3.8614 8.98291 5.66603 9.12376 7.45876L12.4913 7.46626L12.4912 5.07C11.9972 2.50329 11.2194 0.204497 8.21625 0.0075L7.67625 0C5.9424 0.2753 4.46072 1.01427 3.6 2.895C3.6 2.895 3.44625 2.89875 3.13876 2.90626Z"/>

<path id="shape5"
  transform="matrix(1.0000000157226 0 0 1.0000000157226 72.4762544287602 99.0899880887944)"
  fill="#ffffff"
  fill-rule="evenodd"
  stroke-opacity="0"
  stroke="#000000"
  stroke-width="0"
  stroke-linecap="square"
  stroke-linejoin="bevel"
  d="M0.00455611 0.510846L0 18.5063L3.36376 18.5138L3.375 7.12127C4.93038 4.11863 5.75981 4.15184 6.72375 3.62252C6.92225 3.5563 7.10387 3.54413 7.2525 3.63752C8.61389 4.13661 8.73713 5.26854 8.85577 6.40282L8.87625 7.47377L12.4875 7.47377L12.4938 6.50887C12.5666 3.68607 12.3604 0.984606 8.15625 0.0225201C7.90465 -0.0122658 7.66796 -0.00234021 7.43625 0.0225201C5.88406 0.384025 4.35389 0.872106 3.13499 3.15001L3.12819 0.500233C3.12819 0.500233 2.08698 0.503771 0.00455611 0.510846Z"/>

<path id="shape6"
  transform="matrix(1.0000000157226 0 0 1.0000000157226 87.4730013694755 99.1040064164584)"
  fill="#ffffff"
  fill-rule="evenodd"
  stroke-opacity="0"
  stroke="#000000"
  stroke-width="0"
  stroke-linecap="square"
  stroke-linejoin="bevel"
  d="M14.457 9.614L14.465 9.221L14.462 8.832L14.448 8.448L14.424 8.069L14.388 7.694L14.343 7.325L14.287 6.961L14.22 6.603L14.144 6.251L14.059 5.906L13.963 5.568L13.859 5.236L13.745 4.912L13.622 4.596L13.49 4.287L13.35 3.987L13.201 3.695L13.044 3.412L12.878 3.138L12.705 2.874L12.524 2.619L12.335 2.374L12.139 2.139L11.936 1.915L11.726 1.702L11.509 1.5L11.285 1.309L11.055 1.13L10.818 0.963L10.575 0.808L10.326 0.666L10.072 0.537L9.812 0.42L9.546 0.318L9.275 0.229L8.999 0.154L8.718 0.093L8.433 0.048L8.143 0.017L7.848 0.001L7.55 0L7.247 0.016L6.936 0.015L6.63 0.03L6.328 0.06L6.03 0.105L5.738 0.165L5.451 0.239L5.169 0.327L4.892 0.429L4.621 0.545L4.356 0.674L4.097 0.816L3.844 0.971L3.597 1.138L3.358 1.317L3.124 1.508L2.898 1.71L2.679 1.923L2.467 2.148L2.263 2.383L2.066 2.628L1.877 2.883L1.697 3.147L1.524 3.421L1.36 3.705L1.205 3.997L1.058 4.297L0.92 4.605L0.792 4.922L0.672 5.246L0.563 5.577L0.463 5.915L0.372 6.26L0.292 6.611L0.223 6.968L0.163 7.331L0.115 7.7L0.077 8.074L0.05 8.452L0.034 8.835L0.03 9.223L0.037 9.614L0.012 10.011L0 10.404L0 10.792L0.014 11.174L0.04 11.552L0.078 11.923L0.128 12.289L0.189 12.649L0.263 13.002L0.347 13.348L0.442 13.687L0.549 14.019L0.665 14.344L0.792 14.66L0.929 14.969L1.076 15.269L1.233 15.56L1.399 15.842L1.574 16.115L1.757 16.379L1.95 16.632L2.151 16.876L2.36 17.109L2.576 17.332L2.801 17.543L3.033 17.743L3.272 17.932L3.519 18.109L3.772 18.274L4.031 18.427L4.297 18.567L4.569 18.694L4.846 18.808L5.129 18.909L5.418 18.995L5.711 19.068L6.01 19.127L6.313 19.171L6.62 19.2L6.932 19.214L7.247 19.212L7.531 19.211L7.813 19.195L8.091 19.163L8.367 19.117L8.64 19.056L8.909 18.98L9.175 18.891L9.437 18.788L9.694 18.671L9.948 18.542L10.197 18.399L10.441 18.244L10.68 18.077L10.914 17.897L11.143 17.706L11.366 17.504L11.583 17.29L11.794 17.066L11.998 16.831L12.197 16.587L12.388 16.332L12.573 16.067L12.75 15.794L12.92 15.511L13.082 15.22L13.236 14.92L13.383 14.612L13.521 14.296L13.65 13.973L13.771 13.642L13.883 13.305L13.985 12.961L14.078 12.611L14.162 12.254L14.235 11.892L14.299 11.524L14.352 11.151L14.395 10.774L14.426 10.391L14.447 10.005L14.457 9.614M10.808 9.584L10.817 9.195L10.811 8.812L10.789 8.436L10.752 8.068L10.701 7.71L10.636 7.361L10.557 7.023L10.464 6.696L10.359 6.382L10.241 6.08L10.111 5.792L9.968 5.518L9.814 5.259L9.649 5.016L9.474 4.79L9.287 4.581L9.091 4.391L8.885 4.219L8.67 4.068L8.445 3.937L8.212 3.827L7.971 3.739L7.722 3.674L7.466 3.633L7.202 3.616L6.953 3.635L6.71 3.677L6.472 3.744L6.241 3.832L6.017 3.943L5.8 4.075L5.591 4.227L5.389 4.398L5.196 4.589L5.012 4.798L4.838 5.024L4.673 5.266L4.518 5.524L4.373 5.798L4.24 6.086L4.118 6.387L4.007 6.701L3.909 7.027L3.823 7.365L3.75 7.713L3.691 8.07L3.646 8.437L3.614 8.812L3.598 9.195L3.596 9.584L3.604 9.974L3.626 10.356L3.663 10.729L3.715 11.094L3.78 11.448L3.858 11.793L3.948 12.127L4.051 12.449L4.166 12.758L4.292 13.056L4.428 13.339L4.575 13.609L4.732 13.864L4.898 14.104L5.072 14.328L5.255 14.535L5.447 14.725L5.645 14.897L5.85 15.051L6.062 15.186L6.28 15.301L6.504 15.396L6.732 15.47L6.965 15.523L7.202 15.553L7.47 15.545L7.73 15.511L7.982 15.453L8.225 15.37L8.458 15.265L8.683 15.138L8.897 14.989L9.102 14.82L9.296 14.631L9.481 14.423L9.654 14.196L9.817 13.953L9.968 13.693L10.107 13.417L10.235 13.127L10.351 12.822L10.455 12.505L10.546 12.174L10.624 11.833L10.689 11.48L10.741 11.118L10.779 10.746L10.803 10.366L10.813 9.979L10.808 9.584"/>
</svg>
